<?xml version="1.0" standalone="no"?>
<!DOCTYPE svg PUBLIC "-//W3C//DTD SVG 20010904//EN"
 "http://www.w3.org/TR/2001/REC-SVG-20010904/DTD/svg10.dtd">
<svg version="1.0" xmlns="http://www.w3.org/2000/svg"
 width="572.000000pt" height="700.000000pt" viewBox="0 0 572.000000 700.000000"
 preserveAspectRatio="xMidYMid meet">

<g transform="translate(0.000000,700.000000) scale(0.100000,-0.100000)"
fill="#000000" stroke="none">
<path d="M2755 6824 c-458 -81 -806 -345 -1048 -794 -93 -174 -158 -364 -199
-586 -31 -171 -31 -595 0 -863 12 -101 22 -222 22 -267 0 -175 -58 -470 -140
-714 -102 -302 -239 -570 -484 -945 -303 -464 -406 -672 -462 -930 -11 -54
-17 -125 -17 -220 0 -145 12 -225 55 -355 26 -81 116 -275 124 -267 3 3 -12
61 -34 129 -57 176 -75 293 -70 453 11 270 98 478 360 853 241 344 318 460
385 582 162 295 252 519 334 835 l39 150 -5 -83 c-13 -202 -102 -508 -213
-728 -77 -153 -106 -198 -450 -702 -198 -290 -308 -507 -376 -740 -22 -77 -39
-247 -31 -322 31 -304 204 -569 455 -695 96 -48 291 -100 290 -78 0 5 -33 24
-73 42 -206 99 -342 350 -309 574 12 79 61 207 80 207 11 0 19 -39 27 -135 12
-142 23 -148 59 -37 389 1196 372 1148 405 1172 15 10 112 64 217 120 316 170
338 182 361 197 21 14 23 13 32 -9 6 -12 29 -138 51 -278 51 -313 48 -300 60
-300 6 0 27 15 47 33 74 65 280 217 294 217 15 0 200 -105 272 -154 57 -39 53
-56 -53 -217 -33 -50 -67 -114 -75 -142 -9 -29 -53 -266 -99 -527 -108 -611
-111 -628 -104 -636 4 -3 24 7 45 23 99 76 137 103 144 103 5 0 14 -10 20 -23
6 -12 55 -95 107 -185 108 -184 103 -182 137 -52 20 80 104 365 116 399 l10
24 32 -30 c18 -17 98 -83 180 -147 169 -133 159 -137 128 46 -19 110 -36 223
-106 696 -47 312 -56 346 -123 445 -30 45 -61 96 -68 114 -27 64 -2 86 243
213 l102 53 42 -27 c76 -51 274 -199 286 -215 8 -11 15 -13 22 -6 6 6 29 144
52 308 23 163 46 297 52 297 9 0 252 -124 525 -267 76 -40 127 -74 133 -87 5
-11 48 -156 94 -320 96 -334 106 -362 170 -452 56 -78 109 -188 130 -269 19
-73 19 -232 1 -300 -31 -117 -118 -246 -220 -324 -91 -70 -74 -76 57 -19 167
72 290 173 381 312 94 144 124 241 133 426 8 199 -36 375 -153 606 -126 248
-261 425 -681 888 -249 275 -286 333 -292 464 -4 104 11 126 33 50 22 -75 86
-204 131 -263 42 -54 289 -341 475 -550 308 -347 432 -560 496 -855 15 -68 19
-126 18 -290 0 -220 -11 -291 -68 -430 -31 -78 -15 -77 24 0 84 167 120 301
127 480 6 153 -9 256 -57 402 -61 181 -139 309 -400 658 -263 350 -366 526
-440 747 -108 324 -117 499 -65 1173 30 377 16 702 -39 971 -89 430 -239 745
-468 985 -81 84 -185 172 -192 163 -1 -2 -39 -52 -84 -111 -45 -58 -82 -111
-82 -117 0 -6 37 -36 83 -68 105 -73 247 -215 322 -322 139 -200 240 -462 277
-718 16 -118 16 -399 -1 -493 -28 -156 -93 -321 -165 -419 -61 -81 -177 -179
-233 -196 -48 -14 -21 28 81 128 94 93 108 112 155 207 178 365 150 839 -74
1267 -117 222 -245 387 -384 492 -186 142 -388 199 -665 188 -511 -20 -929
-284 -1161 -733 -57 -111 -111 -278 -126 -392 -16 -118 -6 -273 27 -402 32
-128 125 -358 172 -423 33 -46 37 -77 9 -77 -8 0 -22 18 -33 40 -10 22 -22 40
-26 40 -11 0 -9 -12 7 -40 8 -14 14 -51 15 -82 0 -45 3 -58 15 -58 8 0 15 4
15 9 0 16 39 19 60 4 23 -16 70 -106 70 -134 0 -20 -46 -31 -90 -22 -64 12
-155 132 -201 266 -34 98 -36 142 -8 207 l21 48 -36 104 c-102 296 -112 529
-34 793 81 277 241 496 481 656 239 160 485 235 802 246 190 6 261 -2 424 -47
122 -34 121 -34 121 -17 0 6 22 70 49 140 l48 128 -59 30 c-81 41 -223 86
-326 104 -107 19 -359 18 -467 -1z m-308 -755 c76 -34 144 -67 151 -74 11 -10
5 -19 -35 -48 -71 -52 -194 -183 -241 -255 -133 -206 -169 -430 -108 -674 29
-116 29 -146 2 -117 -17 17 -59 142 -82 246 -23 104 -15 299 16 398 28 90 80
186 137 253 24 28 40 52 34 52 -18 0 -124 -94 -187 -166 -99 -113 -131 -157
-187 -250 -66 -108 -82 -118 -72 -43 22 163 90 343 182 481 48 72 222 258 241
258 6 0 72 -27 149 -61z m1371 -139 c173 -190 302 -569 302 -883 0 -166 -14
-178 -29 -25 -33 325 -119 589 -282 858 -32 54 -59 101 -59 105 0 10 37 -20
68 -55z m-915 -9 c7 -7 24 -155 41 -370 6 -67 5 -73 -11 -66 -16 5 -198 34
-336 52 -60 7 -62 5 -78 -102 -11 -78 -8 -223 7 -320 6 -36 5 -38 -9 -26 -9 7
-31 50 -49 94 -31 78 -32 89 -33 212 0 116 3 139 28 217 37 112 102 222 175
297 l58 59 100 -20 c54 -11 103 -23 107 -27z m405 -186 c38 -88 73 -171 77
-185 8 -25 7 -25 -13 -6 -38 34 -142 255 -149 316 -4 39 -2 52 5 45 6 -6 42
-82 80 -170z m-74 -220 c94 -197 198 -346 337 -482 101 -99 118 -111 233 -168
l101 -50 3 -100 c5 -166 -38 -447 -94 -615 -44 -128 -118 -270 -182 -346 -96
-113 -352 -297 -531 -383 -101 -47 -148 -47 -261 3 -247 108 -521 310 -622
458 -86 128 -169 368 -199 573 -11 77 -22 146 -25 154 -7 22 -6 443 1 495 4
25 11 46 15 46 11 0 130 -197 130 -215 0 -11 -11 -15 -40 -15 -22 0 -40 -4
-40 -9 0 -5 44 -12 98 -16 177 -11 190 -40 40 -90 -114 -38 -139 -53 -160 -96
-15 -30 -15 -35 3 -76 20 -48 92 -158 111 -169 8 -5 9 0 3 17 -4 13 -10 61
-12 105 -5 89 12 144 45 144 16 0 18 -9 14 -89 -5 -105 7 -149 55 -209 44 -54
79 -72 142 -72 45 0 56 5 92 37 35 31 69 80 69 97 0 3 -8 5 -17 4 -42 -3 -53
2 -53 27 0 27 30 48 54 39 9 -3 16 -14 16 -23 0 -14 2 -14 10 -1 5 8 10 42 10
74 0 40 5 65 16 77 26 29 -6 63 -114 117 -97 49 -117 67 -87 79 22 8 75 -11
133 -48 25 -15 79 -39 121 -53 79 -26 191 -44 191 -31 0 4 -27 36 -60 71 -93
100 -157 245 -176 398 -8 74 1 70 62 -26 111 -172 270 -284 480 -338 93 -24
205 -25 359 -5 61 8 111 15 113 15 1 0 2 7 2 15 0 8 -41 47 -91 86 -142 112
-232 224 -317 395 -76 152 -113 287 -128 461 -11 135 2 131 52 -18 25 -74 69
-183 98 -244z m390 317 c41 -39 106 -126 158 -213 49 -81 112 -219 103 -227
-6 -7 -3 -11 -60 78 -55 86 -137 188 -236 296 -38 40 -69 78 -69 83 0 30 64
20 104 -17z m-122 -69 c127 -132 234 -290 299 -444 36 -84 91 -260 84 -267 -2
-3 -8 4 -11 14 -86 235 -236 472 -437 692 -37 39 -67 74 -67 77 0 3 13 5 28 5
22 0 45 -17 104 -77z m-1207 -1188 c0 -25 -4 -31 -27 -33 -19 -2 -27 2 -30 15
-8 36 3 54 31 51 22 -2 26 -8 26 -33z m-569 -1167 c-3 -13 -8 -49 -11 -81 -8
-75 -35 -152 -83 -241 -43 -80 -135 -211 -140 -198 -1 4 26 69 62 143 68 144
127 288 145 357 12 43 35 60 27 20z m1651 -124 c2 -16 8 -79 14 -140 7 -61 9
-123 5 -138 -4 -15 -50 -74 -103 -132 -52 -58 -93 -107 -90 -111 4 -3 28 10
54 29 26 19 76 51 110 71 93 56 115 89 137 198 6 26 41 49 76 49 12 0 40 -27
76 -76 82 -112 85 -121 64 -234 -9 -52 -32 -182 -50 -287 -19 -106 -37 -193
-41 -193 -4 0 -103 72 -220 160 -116 88 -218 160 -226 160 -8 0 -31 -12 -50
-27 -34 -26 -43 -28 -138 -28 -94 0 -105 2 -143 28 -47 31 -74 34 -93 11 -8
-9 -47 -43 -89 -74 -41 -32 -124 -97 -185 -144 -60 -47 -115 -86 -121 -86 -9
0 -125 548 -124 588 0 16 69 119 112 168 28 32 35 35 67 29 20 -4 42 -12 49
-18 16 -13 42 -73 42 -96 0 -35 38 -81 105 -126 39 -26 91 -63 118 -82 26 -19
47 -31 47 -26 0 4 -44 55 -96 113 l-96 105 6 65 c3 36 11 110 16 164 5 55 12
101 15 104 6 6 52 -26 213 -148 63 -47 121 -91 131 -97 14 -11 38 3 167 95 82
59 165 119 184 134 42 33 54 31 57 -8z m-209 -744 c70 -51 70 -54 -20 -155
-68 -77 -86 -91 -121 -99 -76 -15 -122 5 -204 92 -40 42 -73 80 -73 84 0 4 28
30 63 57 l62 50 126 1 c124 0 127 0 167 -30z m-304 -258 c-9 -2 -28 8 -43 22
l-26 27 42 -23 c28 -15 37 -24 27 -26z m267 8 c-25 -21 -41 -26 -41 -12 0 9
38 30 55 31 6 0 -1 -9 -14 -19z m-116 -190 c3 -9 12 -55 20 -101 23 -128 19
-609 -4 -609 -8 0 -50 438 -58 607 -6 131 -6 132 15 126 12 -3 24 -13 27 -23z
m-115 -1144 c-11 -151 -22 -199 -36 -163 -18 47 10 640 34 727 12 43 14 -408
2 -564z"/>
<path d="M3485 4770 c-44 -7 -128 -42 -149 -62 -8 -7 -24 -21 -36 -31 l-22
-19 21 -11 c19 -10 23 -22 26 -83 4 -77 21 -129 61 -182 74 -97 192 -96 264 2
l31 41 -26 18 c-15 11 -25 29 -25 43 0 24 11 29 52 26 14 -1 16 9 14 83 -2 78
-1 83 16 74 40 -21 51 -55 45 -134 -3 -41 -12 -88 -20 -105 -13 -24 -13 -30
-2 -30 22 0 135 199 135 238 0 71 -241 154 -385 132z m-55 -196 c0 -28 -3 -35
-17 -32 -12 2 -19 14 -21 36 -3 27 0 32 17 32 17 0 21 -6 21 -36z"/>
<path d="M1525 6119 c-4 -6 -5 -11 -4 -13 2 -1 20 -12 41 -24 31 -19 55 -49
46 -58 -2 -1 -28 4 -58 12 -132 36 -284 -23 -365 -141 -58 -84 -78 -160 -78
-300 0 -123 13 -213 59 -400 63 -255 33 -495 -85 -695 -80 -134 -184 -202
-348 -227 -53 -8 -99 -16 -102 -18 -11 -12 60 -25 147 -26 86 -1 105 2 167 28
39 16 96 48 128 71 31 24 57 40 57 37 0 -4 -13 -25 -29 -48 -34 -50 -94 -168
-109 -217 -23 -71 -31 -171 -21 -259 12 -111 53 -266 95 -361 18 -41 38 -88
44 -104 17 -45 23 -23 10 36 -24 114 -30 200 -19 296 21 188 91 354 250 593
68 101 103 163 106 187 3 21 -5 132 -17 247 -19 176 -21 246 -17 430 7 299 46
499 138 708 22 51 45 106 51 122 6 17 19 41 30 54 30 39 23 57 -26 70 -56 14
-83 14 -91 0z m-95 -243 c0 -3 -15 -31 -34 -63 -64 -109 -120 -276 -141 -416
-4 -26 -12 -50 -18 -54 -13 -8 -1 220 15 287 19 79 65 165 113 209 39 36 65
51 65 37z"/>
<path d="M1737 2280 c-14 -77 -27 -181 -27 -224 0 -47 -7 -76 -20 -76 -4 0
-54 61 -111 135 -93 122 -131 161 -115 120 3 -8 19 -79 35 -157 63 -299 111
-524 122 -561 6 -22 8 -41 5 -44 -7 -7 -29 42 -122 267 -42 102 -81 190 -86
195 -13 13 -8 -17 63 -380 32 -165 61 -324 65 -353 l7 -53 -59 39 c-107 72
-306 193 -310 189 -8 -8 -124 -331 -124 -344 0 -8 17 -21 37 -29 20 -9 104
-47 187 -86 83 -39 239 -112 346 -162 108 -50 204 -96 213 -102 21 -12 36 -69
37 -131 0 -23 6 -45 13 -50 22 -15 262 -102 266 -97 6 5 4 15 -79 374 -82 358
-110 450 -190 620 -84 176 -85 179 -134 790 -9 108 -14 144 -19 120z"/>
<path d="M4196 2248 c-3 -23 -10 -180 -16 -348 -6 -187 -16 -331 -25 -373 -9
-43 -49 -140 -109 -265 -101 -211 -103 -218 -141 -452 l-25 -156 20 -39 c11
-22 20 -50 20 -62 0 -36 -28 -96 -54 -118 -13 -11 -27 -31 -31 -44 -6 -21 -5
-23 11 -16 11 4 45 16 77 27 l57 20 0 89 0 89 30 0 30 0 0 -75 c0 -65 2 -75
18 -75 9 0 22 4 27 8 13 9 35 92 35 130 0 16 6 35 13 44 6 9 104 59 217 111
392 182 503 236 518 251 13 13 10 32 -23 165 -20 83 -41 151 -45 151 -5 0 -88
-46 -187 -102 -98 -55 -195 -110 -215 -122 -20 -11 -39 -18 -43 -14 -3 3 17
142 45 309 105 623 121 722 118 748 -2 15 -45 -105 -108 -298 -57 -177 -107
-324 -112 -327 -10 -7 -18 57 -79 685 -5 52 -11 96 -13 98 -3 3 -7 -15 -10
-39z m-118 -1518 c11 0 5 -7 -15 -20 -17 -10 -36 -28 -42 -38 -10 -18 -13 -17
-49 17 l-38 36 27 17 c15 9 30 26 34 38 7 21 8 20 37 -14 16 -20 37 -36 46
-36z"/>
</g>
</svg>
