<?xml version="1.0" standalone="no"?>
<!DOCTYPE svg PUBLIC "-//W3C//DTD SVG 20010904//EN"
 "http://www.w3.org/TR/2001/REC-SVG-20010904/DTD/svg10.dtd">
<svg version="1.0" xmlns="http://www.w3.org/2000/svg"
 width="750.000000pt" height="750.000000pt" viewBox="0 0 750.000000 750.000000"
 preserveAspectRatio="xMidYMid meet">

<g transform="translate(0.000000,750.000000) scale(0.100000,-0.100000)"
fill="#000000" stroke="none">
<path d="M1295 6230 c-22 -4 -65 -13 -95 -18 -161 -30 -374 -163 -486 -303
-89 -111 -161 -265 -185 -394 -5 -27 -16 -90 -23 -140 -19 -124 -34 -214 -50
-320 -8 -49 -22 -136 -30 -192 -9 -57 -23 -149 -32 -205 -8 -57 -22 -143 -30
-193 -7 -49 -19 -121 -25 -160 -5 -38 -16 -110 -24 -160 -7 -49 -18 -124 -24
-165 -6 -41 -18 -113 -26 -160 -13 -79 -20 -127 -61 -392 -8 -57 -22 -140 -30
-185 -20 -114 -18 -141 11 -179 30 -40 80 -53 126 -33 35 14 69 62 69 97 0 13
7 60 14 105 8 45 22 129 31 187 9 58 23 146 31 195 25 161 36 229 49 320 12
83 23 155 60 390 8 50 21 133 28 185 20 130 54 352 82 520 15 98 26 166 50
330 24 164 49 246 97 318 15 24 28 47 28 51 0 11 150 161 160 161 5 0 15 6 22
13 38 36 165 85 278 107 60 12 834 12 885 0 94 -21 124 -31 180 -61 50 -26
125 -77 145 -99 28 -29 202 -120 229 -120 10 0 21 -4 26 -9 6 -6 39 -16 75
-23 92 -18 1696 -19 1786 0 121 24 257 89 374 178 30 22 82 56 115 73 56 30
86 40 180 61 51 12 825 12 885 0 113 -22 240 -71 278 -107 7 -7 17 -13 22 -13
10 0 160 -150 160 -161 0 -4 13 -27 28 -51 47 -71 84 -195 97 -323 8 -75 16
-97 48 -132 16 -18 31 -23 73 -23 46 0 55 4 78 31 35 41 34 94 -4 284 -42 211
-157 400 -324 530 -116 89 -227 140 -391 177 -86 19 -924 19 -1010 -1 -140
-31 -240 -77 -358 -165 -100 -74 -173 -111 -279 -140 -49 -14 -158 -16 -857
-16 -755 0 -805 1 -870 19 -95 26 -173 66 -261 132 -113 85 -197 126 -350 169
-52 15 -907 24 -975 10z"/>
<path d="M5260 5528 c-91 -40 -121 -59 -172 -109 -35 -34 -68 -80 -84 -115
-24 -52 -27 -72 -28 -169 -1 -125 10 -162 76 -251 44 -58 100 -102 178 -135
46 -20 71 -24 155 -23 93 0 105 3 167 33 147 73 238 215 238 371 0 94 -32 186
-91 261 -42 52 -133 116 -179 125 -17 4 -33 11 -36 15 -7 13 -194 10 -224 -3z
m225 -236 c77 -53 106 -156 68 -239 -36 -77 -86 -108 -173 -107 -74 0 -120 22
-160 76 -21 28 -25 44 -25 108 0 64 4 80 25 109 43 58 86 80 160 80 55 0 71
-4 105 -27z"/>
<path d="M1924 5431 c-101 -30 -189 -97 -232 -176 -44 -81 -52 -125 -52 -282
l0 -153 -138 0 c-153 0 -235 -17 -313 -65 -144 -89 -211 -267 -161 -428 10
-31 24 -63 30 -69 7 -7 12 -17 12 -23 0 -21 95 -110 151 -140 53 -29 57 -30
234 -35 l180 -5 6 -170 c4 -127 10 -181 23 -215 33 -85 105 -162 193 -206 52
-27 65 -29 167 -29 107 0 113 1 172 33 73 40 121 88 165 168 l33 59 6 180 5
180 180 5 180 5 62 34 c74 40 131 100 170 178 25 52 28 68 28 158 0 90 -3 106
-29 160 -17 33 -51 81 -77 107 -92 91 -180 118 -380 118 l-137 0 -4 173 c-3
167 -4 174 -32 232 -53 107 -142 179 -263 210 -72 19 -103 18 -179 -4z m161
-221 c24 -11 54 -34 67 -52 22 -32 23 -43 28 -258 5 -227 7 -237 43 -277 20
-23 25 -23 234 -23 192 0 219 -2 258 -20 101 -46 127 -172 52 -254 -44 -48
-92 -56 -319 -56 -273 0 -268 5 -268 -294 0 -113 -4 -216 -10 -230 -5 -14 -23
-40 -40 -58 -28 -28 -39 -33 -96 -36 -55 -4 -69 -1 -100 19 -68 46 -74 71 -74
310 0 180 -2 215 -17 240 -9 15 -24 32 -32 36 -9 4 -118 9 -242 13 -219 5
-227 6 -263 30 -111 74 -97 225 27 283 32 14 69 17 251 17 l214 0 31 35 31 36
0 215 c0 187 2 220 18 247 25 44 43 61 88 80 51 21 67 21 119 -3z"/>
<path d="M6935 4898 c-54 -29 -65 -49 -65 -113 0 -34 5 -87 11 -116 6 -30 17
-99 25 -154 8 -55 21 -140 29 -190 41 -261 48 -307 60 -390 13 -91 24 -159 49
-320 8 -49 22 -137 31 -195 9 -58 23 -145 31 -195 21 -134 29 -189 79 -515 9
-58 22 -145 30 -195 8 -49 21 -135 29 -190 8 -55 19 -124 25 -154 17 -83 13
-188 -9 -266 -20 -71 -49 -137 -62 -143 -5 -2 -8 -8 -8 -13 0 -20 -77 -107
-123 -140 -27 -19 -54 -39 -60 -44 -22 -19 -112 -55 -177 -71 -49 -12 -92 -15
-170 -11 -285 14 -553 149 -732 368 -37 45 -168 236 -168 245 0 3 -5 10 -10
17 -22 26 -240 360 -240 368 0 5 -4 9 -8 9 -5 0 -14 10 -21 23 -67 129 -189
261 -293 316 -96 51 -171 71 -290 78 l-108 6 0 97 c0 178 -64 294 -202 367
l-53 28 -785 0 -785 0 -50 -27 c-140 -74 -205 -190 -205 -368 l0 -97 -108 -6
c-175 -10 -303 -63 -417 -174 -53 -51 -135 -153 -135 -168 0 -9 -44 -70 -52
-73 -5 -2 -8 -7 -8 -12 0 -7 -156 -249 -177 -275 -5 -5 -20 -28 -33 -50 -13
-22 -28 -41 -32 -43 -4 -2 -8 -8 -8 -13 0 -12 -89 -145 -151 -226 -145 -187
-331 -305 -579 -368 -100 -26 -261 -31 -340 -11 -67 17 -163 55 -168 69 -2 4
-8 7 -13 7 -30 0 -179 150 -179 180 0 5 -4 10 -8 10 -11 0 -40 67 -63 147 -21
76 -25 182 -8 264 6 30 17 99 25 154 51 345 51 339 2 380 -40 34 -96 34 -135
1 -31 -26 -45 -69 -63 -201 -18 -132 -32 -220 -46 -298 -20 -111 -18 -234 7
-334 11 -47 24 -92 28 -101 5 -10 19 -39 32 -67 29 -63 114 -179 166 -226 107
-97 184 -141 318 -185 83 -27 102 -29 235 -29 160 1 306 26 425 75 32 13 188
90 210 103 99 60 236 180 301 262 21 27 44 55 49 61 6 6 17 22 25 34 8 12 23
33 32 45 10 13 18 26 18 29 0 3 43 69 95 147 52 77 95 143 95 145 0 8 44 69
53 72 4 2 7 8 7 12 0 19 184 286 224 325 24 23 74 57 112 76 l69 34 1235 0
1235 0 69 -34 c38 -19 88 -53 112 -76 40 -39 224 -306 224 -325 0 -4 3 -10 8
-12 8 -3 52 -64 52 -72 0 -2 43 -68 95 -145 52 -78 95 -144 95 -147 0 -3 8
-16 18 -29 9 -12 24 -33 32 -45 8 -12 20 -28 25 -34 6 -6 28 -34 49 -61 98
-124 249 -241 411 -319 121 -58 162 -72 300 -103 112 -25 346 -25 430 0 115
35 184 69 271 133 84 63 135 117 190 199 36 55 49 78 83 155 41 93 62 298 42
405 -7 33 -19 107 -28 165 -8 58 -21 143 -28 190 -26 168 -46 297 -60 385 -19
128 -33 217 -49 320 -8 50 -22 137 -31 195 -9 58 -21 134 -26 170 -6 36 -17
108 -25 160 -15 100 -35 230 -60 390 -8 52 -21 136 -28 185 -23 151 -36 236
-52 320 -7 44 -14 92 -14 107 0 49 -30 106 -66 128 -39 22 -60 25 -89 8z
m-2430 -1728 c49 -30 65 -73 65 -174 l0 -86 -820 0 -820 0 0 84 c0 47 4 96 9
109 11 28 49 71 71 80 8 3 341 6 739 6 709 1 724 1 756 -19z"/>
<path d="M4575 4831 c-86 -25 -122 -46 -185 -110 -69 -69 -97 -124 -112 -217
-23 -146 23 -280 130 -379 14 -13 59 -40 99 -61 69 -34 78 -36 171 -36 80 0
108 4 153 23 137 57 219 157 253 306 14 65 15 79 1 145 -18 85 -36 128 -79
183 -75 97 -213 166 -328 164 -24 0 -70 -8 -103 -18z m176 -220 c58 -26 93
-65 113 -126 15 -46 15 -56 1 -101 -29 -98 -120 -154 -221 -135 -86 16 -140
73 -151 158 -10 90 31 165 113 203 51 24 92 24 145 1z"/>
<path d="M5970 4831 c-100 -30 -164 -74 -227 -156 -17 -22 -34 -51 -38 -65 -4
-14 -13 -31 -19 -39 -7 -9 -11 -60 -11 -135 0 -113 2 -125 29 -179 35 -72 114
-153 185 -190 109 -56 269 -55 378 4 249 133 298 455 99 655 -58 58 -95 78
-186 105 -77 23 -135 23 -210 0z m190 -226 c95 -48 136 -161 91 -251 -42 -83
-128 -123 -220 -103 -87 19 -141 88 -141 181 0 31 4 67 9 80 24 60 108 115
179 117 18 1 55 -10 82 -24z"/>
<path d="M5275 4135 c-125 -35 -218 -114 -279 -240 -16 -32 -20 -63 -20 -155
-1 -111 0 -117 33 -182 86 -171 256 -256 442 -223 86 15 129 35 192 88 177
148 196 416 42 586 -106 117 -264 165 -410 126z m166 -216 c43 -15 97 -64 115
-108 62 -147 -79 -302 -233 -256 -93 28 -142 106 -130 208 8 66 34 104 92 138
54 31 100 36 156 18z"/>
</g>
</svg>
