<?xml version="1.0" standalone="no"?>
<!DOCTYPE svg PUBLIC "-//W3C//DTD SVG 20010904//EN"
 "http://www.w3.org/TR/2001/REC-SVG-20010904/DTD/svg10.dtd">
<svg version="1.0" xmlns="http://www.w3.org/2000/svg"
 width="1096.000000pt" height="848.000000pt" viewBox="0 0 1096.000000 848.000000"
 preserveAspectRatio="xMidYMid meet">

<g transform="translate(0.000000,848.000000) scale(0.100000,-0.100000)"
fill="#000000" stroke="none">
<path d="M3083 7626 c-18 -22 -61 -81 -95 -131 -121 -173 -384 -417 -568 -525
-108 -64 -311 -161 -397 -190 -88 -29 -397 -90 -459 -90 -18 0 -35 -4 -38 -8
-2 -4 -10 -66 -16 -137 -6 -72 -18 -204 -26 -295 -8 -91 -21 -239 -29 -330 -8
-91 -21 -239 -30 -330 -8 -91 -24 -271 -35 -400 -11 -129 -34 -381 -51 -560
-16 -179 -36 -401 -44 -495 -8 -93 -26 -298 -40 -455 -14 -157 -32 -361 -40
-455 -8 -93 -17 -188 -20 -210 -3 -22 -12 -119 -20 -215 -24 -293 -80 -911
-124 -1375 -4 -49 -5 -93 -2 -98 4 -4 329 -6 722 -5 l714 3 7 90 c4 50 21 268
38 485 17 217 40 503 50 635 11 132 24 301 30 375 10 129 54 681 85 1065 8 99
24 297 35 440 25 333 50 614 56 643 6 28 20 28 38 -1 9 -12 108 -288 221 -612
423 -1211 527 -1509 844 -2420 100 -286 193 -553 208 -593 l26 -72 429 2 429
3 31 90 c17 50 116 335 220 635 360 1032 548 1573 668 1915 56 160 132 377
168 482 37 106 69 193 72 193 3 0 4 -756 2 -1680 l-2 -1680 939 0 940 0 15 22
c12 17 16 19 16 6 0 -9 7 -19 16 -22 21 -8 699 -8 707 1 4 3 3 11 -2 17 -37
47 -63 364 -42 521 14 102 58 242 102 325 66 124 211 294 301 352 26 17 45 34
42 37 -3 3 -281 8 -617 11 l-612 5 -7 65 c-9 72 -84 895 -153 1675 -25 281
-70 780 -100 1110 -49 539 -68 766 -91 1050 -4 50 -10 331 -13 625 l-6 535
-750 3 c-412 2 -777 0 -811 -3 l-61 -6 -33 -87 c-31 -82 -265 -691 -692 -1802
-701 -1823 -669 -1741 -681 -1737 -5 1 -316 801 -691 1777 -639 1662 -714
1851 -733 1863 -5 3 -23 -14 -40 -37z"/>
<path d="M9663 2126 c-68 -22 -126 -61 -185 -124 -88 -95 -117 -175 -118 -318
0 -197 105 -353 288 -425 78 -31 239 -32 324 -1 195 70 306 242 296 457 -3 83
-8 101 -42 170 -48 98 -126 176 -215 219 -61 28 -75 31 -186 33 -80 2 -134 -2
-162 -11z"/>
</g>
</svg>
