<?xml version="1.0" standalone="no"?>
<!DOCTYPE svg PUBLIC "-//W3C//DTD SVG 20010904//EN"
 "http://www.w3.org/TR/2001/REC-SVG-20010904/DTD/svg10.dtd">
<svg version="1.0" xmlns="http://www.w3.org/2000/svg"
 width="1112.000000pt" height="1008.000000pt" viewBox="0 0 1112.000000 1008.000000"
 preserveAspectRatio="xMidYMid meet">

<g transform="translate(0.000000,1008.000000) scale(0.100000,-0.100000)"
fill="#000000" stroke="none">
<path d="M3004 9267 c-16 -19 -58 -76 -94 -127 -72 -104 -244 -289 -348 -373
-37 -30 -105 -80 -152 -112 -115 -77 -381 -209 -482 -239 -87 -26 -307 -70
-418 -83 l-65 -8 -7 -50 c-3 -27 -14 -140 -22 -250 -9 -110 -23 -272 -31 -360
-8 -88 -24 -261 -35 -385 -11 -124 -27 -297 -35 -385 -8 -88 -26 -290 -40
-450 -13 -159 -32 -362 -40 -450 -15 -157 -34 -377 -54 -605 -43 -483 -54
-611 -71 -800 -63 -685 -78 -844 -95 -1045 -31 -356 -45 -512 -50 -547 l-5
-38 724 0 724 0 6 112 c4 62 12 167 17 233 5 66 18 230 29 365 11 135 29 358
40 495 11 138 29 365 40 505 11 140 29 370 40 510 11 140 38 478 60 750 55
691 62 774 72 785 18 21 48 -38 111 -220 36 -104 149 -431 252 -725 103 -294
222 -636 265 -760 43 -124 178 -511 300 -860 122 -349 257 -736 300 -860 43
-124 84 -240 90 -258 l12 -32 430 2 430 3 25 75 c52 152 278 803 375 1080 55
157 156 447 225 645 68 198 144 416 169 485 24 69 94 267 155 440 61 173 132
377 157 452 26 76 49 138 52 138 3 0 4 -756 2 -1680 l-2 -1680 1313 0 c723 0
1316 2 1319 6 3 3 -2 26 -12 52 -28 75 -44 229 -37 376 10 214 57 363 164 525
63 93 209 248 261 275 17 9 32 21 32 26 0 6 -228 11 -618 12 l-617 3 -7 65
c-12 104 -84 906 -283 3120 -64 713 -75 938 -75 1483 l0 397 -811 -2 -811 -3
-20 -50 c-11 -27 -60 -153 -108 -280 -117 -308 -501 -1305 -588 -1530 -39 -99
-179 -463 -311 -810 -271 -707 -369 -956 -380 -968 -6 -6 -131 314 -472 1203
-488 1274 -908 2362 -927 2398 -10 20 -23 37 -29 39 -6 2 -23 -11 -39 -30z"/>
<path d="M9585 3767 c-66 -22 -106 -47 -162 -99 -111 -106 -147 -199 -141
-367 3 -94 7 -114 35 -174 84 -178 280 -279 483 -249 101 14 175 50 248 117
103 95 147 208 140 359 -3 80 -8 101 -40 168 -44 93 -128 180 -213 222 -55 27
-70 30 -185 33 -84 2 -138 -1 -165 -10z"/>
<path d="M8625 2121 c-43 -11 -107 -46 -128 -69 -47 -51 -60 -156 -27 -210 26
-43 66 -66 180 -103 52 -17 102 -40 112 -50 37 -43 -14 -89 -98 -89 -41 0 -51
5 -81 36 l-34 37 -50 -23 c-62 -29 -65 -57 -14 -106 182 -171 522 -4 415 206
-22 43 -78 74 -190 105 -118 32 -148 61 -116 110 31 47 116 52 179 10 30 -19
51 -15 90 20 33 29 33 36 5 62 -58 53 -172 83 -243 64z"/>
<path d="M1510 1800 l0 -320 70 0 70 0 2 206 3 206 40 -58 c22 -33 57 -78 79
-101 35 -39 43 -43 86 -43 l48 0 72 98 c40 53 75 98 78 100 4 1 5 -90 4 -203
l-4 -205 71 0 71 0 0 320 0 320 -61 0 c-54 0 -64 -3 -85 -27 -31 -36 -175
-234 -181 -250 -6 -15 -33 -18 -33 -4 0 12 -177 252 -198 269 -9 6 -42 12 -74
12 l-58 0 0 -320z"/>
<path d="M2400 2112 c0 -5 47 -79 105 -166 l104 -157 3 -152 3 -152 65 0 65 0
3 152 3 151 109 164 109 163 -77 3 c-88 3 -78 11 -154 -112 -26 -42 -51 -76
-55 -76 -8 1 -95 122 -121 167 -11 21 -20 23 -87 23 -41 0 -75 -4 -75 -8z"/>
<path d="M3530 1800 l0 -320 70 0 71 0 -3 200 c-2 110 0 200 4 200 4 0 32 -34
63 -75 73 -96 97 -115 149 -115 46 0 55 9 146 141 26 38 50 66 53 63 3 -3 2
-97 -1 -210 l-5 -204 72 0 71 0 0 320 0 320 -64 0 -64 0 -102 -140 c-56 -77
-105 -142 -109 -145 -5 -2 -56 61 -115 140 l-108 145 -64 0 -64 0 0 -320z"/>
<path d="M4420 1800 l0 -320 200 0 200 0 0 66 0 65 -127 -3 -128 -3 -3 78 -3
77 116 0 116 0 -3 58 -3 57 -112 3 -113 3 0 59 0 60 130 0 130 0 0 60 0 60
-200 0 -200 0 0 -320z"/>
<path d="M5030 1800 l0 -322 168 4 c183 5 211 12 275 67 59 52 90 130 95 236
3 74 0 100 -17 146 -28 75 -79 131 -143 160 -47 20 -72 24 -215 27 l-163 4 0
-322z m337 174 c88 -57 83 -302 -6 -348 -15 -8 -63 -16 -106 -18 l-80 -3 -3
185 c-1 101 0 191 3 199 8 19 158 8 192 -15z"/>
<path d="M5770 2066 c0 -49 2 -54 25 -60 l25 -6 0 -199 0 -199 -25 -6 c-23 -6
-25 -11 -25 -61 l0 -55 115 0 c106 0 115 2 115 19 0 10 3 33 6 50 6 28 4 32
-25 42 l-31 11 2 197 c3 192 3 196 26 206 19 8 22 17 22 62 l0 53 -115 0 -115
0 0 -54z"/>
<path d="M6444 2098 c-4 -13 -60 -151 -126 -308 -65 -157 -120 -289 -121 -295
-1 -6 29 -11 71 -13 62 -2 73 0 78 15 3 10 15 42 27 71 l21 52 132 0 c93 0
134 -4 141 -12 6 -7 19 -38 31 -68 l20 -55 62 -3 c78 -4 94 1 80 25 -6 10 -66
151 -134 313 l-123 295 -76 3 c-71 3 -76 1 -83 -20z m130 -261 c20 -48 36 -89
36 -92 0 -3 -36 -5 -80 -5 -44 0 -80 3 -80 6 0 19 75 192 81 186 4 -4 23 -46
43 -95z"/>
<path d="M7422 1803 l3 -318 195 0 195 0 0 60 0 60 -127 -3 -128 -3 0 261 0
260 -70 0 -70 0 2 -317z"/>
<path d="M8000 2070 c0 -44 3 -52 25 -62 l25 -11 0 -198 c0 -197 0 -198 -22
-201 -20 -3 -23 -10 -26 -60 l-3 -58 116 0 115 0 0 39 c0 22 2 46 6 54 3 10
-4 16 -25 20 l-31 7 0 200 0 200 25 6 c23 6 25 11 25 60 l0 54 -115 0 -115 0
0 -50z"/>
<path d="M9092 2058 c3 -59 4 -63 28 -64 14 0 50 -1 80 -2 l55 -2 0 -252 0
-253 67 -3 68 -3 2 258 3 258 78 3 77 3 0 59 0 60 -230 0 -231 0 3 -62z"/>
</g>
</svg>
