<?xml version="1.0" standalone="no"?>
<!DOCTYPE svg PUBLIC "-//W3C//DTD SVG 20010904//EN"
 "http://www.w3.org/TR/2001/REC-SVG-20010904/DTD/svg10.dtd">
<svg version="1.0" xmlns="http://www.w3.org/2000/svg"
 width="768.000000pt" height="800.000000pt" viewBox="0 0 768.000000 800.000000"
 preserveAspectRatio="xMidYMid meet">

<g transform="translate(0.000000,800.000000) scale(0.100000,-0.100000)"
fill="#000000" stroke="none">
<path d="M4460 7975 c-219 -52 -306 -93 -482 -227 -75 -57 -81 -59 -200 -84
-207 -44 -354 -93 -553 -184 l-69 -32 -86 38 c-220 97 -339 140 -489 176 -70
17 -118 21 -256 21 -166 0 -172 -1 -267 -32 -99 -34 -222 -101 -314 -172 -143
-110 -275 -329 -324 -537 -11 -49 -19 -58 -134 -161 -144 -129 -226 -215 -261
-275 -32 -56 -54 -159 -56 -261 0 -44 -3 -87 -7 -97 -4 -9 -65 -60 -137 -114
-384 -288 -533 -447 -661 -704 -111 -223 -153 -391 -161 -645 -6 -186 5 -273
53 -435 41 -133 158 -347 248 -450 17 -19 41 -48 53 -65 38 -53 36 -19 -5 82
-102 251 -122 356 -122 644 0 465 109 690 485 1003 138 115 344 270 350 264 3
-3 -17 -52 -44 -109 -135 -289 -239 -653 -305 -1074 -45 -285 -60 -488 -76
-1020 -19 -641 -33 -875 -71 -1220 -17 -158 -82 -656 -94 -725 -2 -14 -25
-136 -51 -273 -26 -136 -44 -251 -40 -255 10 -9 34 23 120 168 193 326 329
655 431 1045 20 77 44 165 53 195 l16 55 8 -60 c33 -243 43 -308 69 -445 96
-492 215 -832 423 -1205 66 -118 240 -389 306 -475 31 -41 30 -19 -2 60 -161
396 -295 930 -333 1329 -26 267 -8 946 25 926 4 -2 13 -60 19 -127 50 -490
147 -804 369 -1193 53 -92 156 -303 181 -370 13 -33 30 -77 38 -97 l16 -37
-56 -93 c-61 -104 -157 -291 -157 -308 0 -6 33 22 73 63 114 115 260 191 453
233 121 26 376 24 516 -4 340 -70 623 -239 806 -481 33 -44 66 -94 73 -111 8
-16 21 -32 29 -35 39 -12 273 -45 279 -40 3 4 6 158 6 343 0 278 -3 361 -19
473 l-19 137 -101 42 c-160 68 -299 117 -471 165 -307 86 -478 111 -709 102
-239 -9 -290 -34 -518 -256 l-143 -139 -14 25 c-33 63 -61 171 -67 257 -9 128
3 164 71 220 30 24 52 46 49 50 -2 3 -1 4 2 2 3 -2 45 20 92 51 187 117 387
196 581 228 151 26 207 18 476 -64 347 -107 615 -184 620 -180 4 5 -28 152
-48 219 l-14 45 -199 36 c-212 38 -286 54 -456 96 l-108 27 -6 35 c-8 39 2
354 12 389 4 14 23 29 50 42 68 30 282 81 344 81 68 1 76 -8 119 -133 46 -132
180 -444 196 -458 12 -10 12 -3 -1 41 -9 30 -20 61 -24 69 -4 8 -23 65 -40
125 -18 61 -35 117 -38 125 -3 10 -2 12 6 5 27 -25 211 -531 282 -778 133
-456 194 -810 209 -1215 5 -120 13 -218 18 -223 6 -6 37 -13 70 -16 l59 -5 21
63 21 64 6 -40 c4 -22 10 -51 14 -65 l8 -25 134 0 135 0 -2 120 c-2 110 -25
371 -39 438 -5 24 -3 27 23 27 15 0 115 -16 221 -35 107 -19 264 -42 350 -51
193 -21 264 -13 373 39 91 44 149 92 197 165 20 31 42 57 48 59 18 6 170 -269
243 -440 19 -42 36 -77 39 -77 12 0 114 83 196 161 l88 84 -25 75 c-14 41 -64
154 -112 250 -48 96 -91 186 -96 200 -9 24 -8 23 16 -5 38 -45 218 -304 246
-352 13 -24 27 -43 32 -43 4 0 26 28 48 62 30 47 39 69 34 88 -9 42 -122 268
-198 395 -38 66 -116 188 -172 270 -222 329 -329 518 -400 710 -62 166 -66
151 66 237 165 108 268 190 405 324 130 128 255 286 294 374 24 53 25 64 30
331 l5 277 130 261 c71 144 133 261 137 261 15 0 8 -148 -12 -262 -20 -115
-73 -302 -110 -385 -33 -76 -24 -83 31 -23 78 85 239 287 290 365 67 102 167
295 210 403 41 105 46 105 69 2 16 -71 22 -444 9 -533 -21 -145 7 -95 97 168
213 623 230 1149 52 1680 -70 209 -180 420 -314 602 -84 114 -137 170 -349
374 -86 82 -107 109 -149 190 -107 209 -289 452 -454 607 -133 125 -361 286
-517 365 -110 55 -297 127 -417 161 -214 60 -269 67 -543 72 -238 4 -255 3
-355 -21z m-1482 -613 c22 -14 5 -35 -104 -127 -140 -118 -364 -365 -464 -510
-17 -25 -34 -44 -37 -41 -12 12 -3 92 18 154 80 245 286 481 454 523 42 10
117 10 133 1z m2827 -133 c317 -37 636 -151 763 -273 40 -38 132 -175 132
-196 0 -16 -16 -12 -82 21 -371 181 -784 246 -1343 209 -371 -25 -712 -94
-1075 -219 -127 -43 -217 -79 -538 -213 -86 -36 -81 -40 -113 76 -25 96 -39
80 154 177 431 217 890 358 1332 410 239 28 569 31 770 8z m-2331 -501 c7 -46
35 -207 42 -240 6 -24 1 -29 -45 -53 l-52 -26 -25 58 c-14 32 -33 86 -42 121
-14 58 -14 66 1 98 17 35 69 74 99 74 12 0 19 -10 22 -32z m-201 -85 c3 -10 8
-40 12 -68 4 -27 19 -82 35 -122 l27 -72 -21 -19 c-11 -10 -33 -26 -48 -35
-26 -16 -27 -16 -47 9 -40 51 -88 213 -77 258 4 15 22 32 48 45 52 26 65 26
71 4z m-143 -258 c0 -14 4 -25 8 -25 4 0 14 -20 21 -45 l13 -45 -60 -62 c-250
-261 -427 -575 -511 -908 -17 -68 -33 -125 -35 -127 -6 -6 -25 73 -40 167 -18
108 -11 176 30 300 51 152 191 384 328 544 83 97 216 226 232 226 8 0 14 -11
14 -25z m-901 -871 c13 -103 43 -231 81 -336 28 -82 42 -168 55 -343 17 -233
77 -644 150 -1030 78 -414 117 -639 130 -750 4 -27 8 -57 10 -65 14 -51 59
-560 50 -560 -6 0 -106 153 -130 200 -10 19 -49 88 -87 152 -204 345 -341 708
-422 1113 -60 301 -77 461 -83 781 -8 409 15 648 93 997 29 133 94 350 121
407 4 8 10 -97 14 -235 4 -137 12 -287 18 -331z m2908 119 c217 -327 400 -617
593 -943 73 -124 155 -261 181 -304 l48 -79 12 27 c10 22 10 86 1 306 -11 248
-43 664 -57 745 -11 61 15 6 78 -170 112 -308 214 -663 262 -905 9 -47 20 -88
24 -93 4 -4 36 68 72 160 35 92 65 159 67 149 4 -17 -11 -139 -24 -211 -4 -20
-3 -27 4 -20 5 6 19 48 30 95 42 179 46 240 47 657 0 222 2 403 5 403 3 0 10
-10 15 -23 6 -12 45 -87 86 -167 66 -126 111 -224 165 -360 22 -54 74 -252 74
-281 0 -23 -9 -30 -77 -58 -146 -59 -170 -78 -188 -153 -7 -26 -6 -27 22 -19
15 5 77 29 136 55 60 25 114 46 121 46 9 0 15 -38 22 -125 5 -69 8 -129 7
-133 -2 -4 -54 -6 -115 -4 -152 5 -204 -14 -298 -107 -93 -92 -105 -129 -105
-326 0 -133 2 -154 21 -185 26 -45 65 -60 102 -40 33 18 56 65 117 240 26 74
51 139 55 144 5 4 14 -17 21 -48 11 -52 10 -62 -14 -144 -33 -109 -46 -229
-47 -440 l-1 -164 -38 -76 c-51 -100 -90 -154 -195 -268 -154 -166 -397 -344
-649 -474 -73 -38 -158 -76 -190 -85 -58 -17 -59 -17 -145 10 -141 44 -342
129 -567 240 -380 188 -612 331 -802 493 -43 37 -87 74 -97 82 -18 14 -19 14
-6 -9 26 -50 384 -384 523 -489 104 -78 348 -242 465 -311 40 -24 75 -47 77
-52 3 -4 -6 -24 -20 -45 -23 -35 -25 -45 -25 -165 0 -146 18 -329 32 -329 6 0
8 6 5 14 -10 25 16 24 98 -4 387 -133 402 -139 456 -197 48 -51 140 -184 134
-194 -9 -14 -104 -41 -117 -33 -7 4 -40 29 -73 54 -33 26 -85 63 -115 82 -65
41 -334 178 -349 178 -25 0 -6 -19 66 -65 112 -72 219 -153 293 -223 l65 -61
-78 -1 c-90 0 -199 20 -289 54 -86 33 -290 122 -363 159 -33 17 -116 53 -185
82 l-125 51 -107 208 c-59 115 -137 261 -172 325 -240 431 -355 786 -435 1341
-26 183 -53 461 -45 469 4 3 11 -3 18 -13 53 -89 131 -200 168 -241 26 -28 59
-64 75 -81 59 -65 152 -146 163 -142 7 2 -1 21 -19 45 -70 97 -146 297 -176
466 -26 147 -17 353 23 507 39 153 106 314 202 486 81 146 222 368 242 380 6
4 9 3 7 -2 -10 -19 -30 -64 -80 -179 -95 -219 -186 -399 -253 -499 -36 -55
-64 -102 -61 -104 2 -3 44 32 92 76 409 375 756 852 873 1200 19 56 37 102 40
102 3 0 91 -129 197 -287z m-1806 -1023 c85 -26 107 -43 114 -88 22 -134 50
-246 94 -380 28 -84 51 -168 51 -187 0 -51 -38 -240 -61 -300 -25 -68 -36 -76
-98 -77 -96 0 -238 87 -368 226 -139 149 -175 277 -139 498 25 152 87 252 189
302 63 32 130 34 218 6z m1322 -3246 c198 -45 340 -96 549 -200 l113 -56 230
5 c226 5 345 19 345 41 0 6 -9 36 -21 66 -20 54 -20 55 -1 35 73 -73 442 -625
442 -660 0 -3 -28 28 -62 71 -77 95 -314 334 -333 334 -9 0 -22 -37 -39 -108
-14 -60 -26 -115 -26 -124 0 -11 -14 -17 -52 -21 -29 -3 -82 -18 -118 -33 -74
-31 -160 -36 -265 -15 -392 81 -768 171 -782 188 -6 8 -26 61 -43 116 -17 56
-55 166 -84 244 -29 79 -50 145 -47 148 7 8 60 -1 194 -31z"/>
<path d="M4560 4770 c9 -5 70 -23 135 -40 66 -18 181 -50 255 -72 74 -22 214
-62 310 -89 96 -27 195 -56 220 -63 101 -32 141 -31 108 2 -10 10 -10 14 0 21
19 11 -9 32 -108 79 -165 80 -459 143 -747 162 -186 12 -193 12 -173 0z"/>
<path d="M4750 4394 c-153 -40 -308 -92 -425 -142 -71 -30 -135 -59 -142 -65
-9 -6 1 -36 42 -116 65 -132 162 -301 182 -321 14 -13 14 -8 7 45 -14 94 -11
237 4 243 17 5 39 -51 52 -134 18 -116 65 -189 149 -234 30 -15 115 -16 156 0
41 15 101 75 132 132 38 69 83 72 136 8 l27 -31 10 23 c9 22 41 174 55 266 4
23 11 42 17 42 12 0 78 -47 201 -144 48 -38 90 -66 93 -64 3 3 -9 52 -26 108
-16 56 -30 109 -30 117 0 13 12 14 70 8 39 -4 70 -3 70 1 0 11 -247 173 -315
207 -124 61 -336 85 -465 51z"/>
<path d="M5280 4385 c0 -14 208 -131 216 -122 8 8 -190 127 -211 127 -3 0 -5
-2 -5 -5z"/>
<path d="M6524 4234 c-101 -63 -121 -80 -86 -71 28 7 192 109 192 119 0 15
-18 7 -106 -48z"/>
<path d="M4490 3582 c0 -5 14 -21 30 -37 17 -16 30 -39 30 -51 0 -19 6 -22 48
-23 26 0 121 -7 211 -15 91 -8 168 -13 173 -10 16 10 7 20 -37 38 -25 11 -45
21 -45 24 0 3 12 18 27 34 34 36 27 43 -20 18 -32 -17 -58 -20 -167 -21 -119
-1 -134 1 -186 25 -63 29 -64 29 -64 18z"/>
<path d="M6313 3473 c2 -27 4 -28 73 -31 39 -2 83 3 100 9 28 12 26 13 -41 21
-38 4 -80 12 -93 18 -35 15 -41 12 -39 -17z"/>
<path d="M6162 3188 c-44 -87 -43 -116 3 -63 35 42 47 77 36 108 -6 15 -13 5
-39 -45z"/>
<path d="M5685 2761 c11 -4 43 -5 70 -1 49 7 49 7 -20 8 -44 0 -62 -2 -50 -7z"/>
<path d="M4945 1571 c-8 -26 12 -138 31 -171 14 -24 15 -22 8 25 -3 28 -9 73
-13 102 -8 59 -16 74 -26 44z"/>
<path d="M3146 4461 c-7 -11 17 -21 52 -21 46 -1 107 -36 165 -94 48 -49 77
-68 77 -50 0 16 -53 78 -94 110 -67 51 -183 83 -200 55z"/>
<path d="M3012 4339 c-24 -63 -44 -170 -37 -196 7 -25 10 -21 22 37 7 36 20
87 28 115 15 52 4 90 -13 44z"/>
<path d="M3290 4089 c0 -6 11 -20 25 -31 36 -28 55 -70 55 -120 l1 -43 15 28
c21 38 9 88 -29 127 -37 38 -67 56 -67 39z"/>
<path d="M3385 2369 c-74 -11 -165 -37 -165 -47 0 -8 405 -123 432 -122 13 0
15 5 9 28 -13 43 -47 105 -69 126 -25 22 -118 29 -207 15z"/>
</g>
</svg>
