<?xml version="1.0" standalone="no"?>
<!DOCTYPE svg PUBLIC "-//W3C//DTD SVG 20010904//EN"
 "http://www.w3.org/TR/2001/REC-SVG-20010904/DTD/svg10.dtd">
<svg version="1.0" xmlns="http://www.w3.org/2000/svg"
 width="1024.000000pt" height="1024.000000pt" viewBox="0 0 1024.000000 1024.000000"
 preserveAspectRatio="xMidYMid meet">

<g transform="translate(0.000000,1024.000000) scale(0.100000,-0.100000)"
fill="#000000" stroke="none">
<path d="M4925 10040 c-291 -31 -601 -225 -773 -483 -41 -62 -70 -115 -125
-234 -10 -21 -17 -23 -102 -23 -234 0 -497 -87 -698 -230 -85 -61 -214 -191
-267 -270 -46 -68 -120 -205 -120 -224 0 -6 -7 -19 -14 -28 -12 -17 -17 -16
-82 6 -125 44 -172 51 -339 51 -196 0 -270 -17 -445 -97 -337 -155 -540 -502
-540 -924 0 -319 141 -627 386 -848 58 -51 55 -40 84 -316 6 -58 15 -147 20
-197 6 -51 15 -136 20 -188 6 -52 15 -138 20 -190 6 -52 15 -138 20 -190 6
-52 15 -138 20 -190 6 -52 15 -138 20 -190 6 -52 15 -138 20 -190 6 -52 15
-138 20 -190 6 -52 15 -138 20 -190 6 -52 15 -138 20 -190 6 -52 15 -138 20
-190 6 -52 15 -138 20 -190 6 -52 15 -138 20 -190 6 -52 15 -138 20 -190 6
-52 15 -138 20 -190 6 -52 15 -138 20 -190 6 -52 15 -138 20 -190 6 -52 15
-138 20 -190 6 -52 15 -138 20 -190 6 -52 15 -138 20 -190 6 -52 15 -138 20
-190 6 -52 15 -138 20 -190 6 -52 15 -138 20 -190 6 -52 15 -138 20 -190 6
-52 15 -138 20 -190 6 -52 15 -138 20 -190 6 -52 15 -138 20 -190 6 -52 15
-138 20 -190 33 -318 47 -382 103 -490 97 -187 255 -318 466 -385 64 -20 80
-20 2097 -20 2164 0 2064 -2 2184 46 80 32 160 84 232 152 77 73 111 118 156
208 58 113 71 175 102 467 5 53 15 140 20 192 6 52 15 138 20 190 6 52 14 137
20 188 5 50 14 139 20 197 6 58 15 139 20 180 5 41 12 114 16 162 l6 87 -33 5
c-19 3 -102 7 -186 10 -177 7 -157 22 -173 -139 -14 -136 -27 -262 -40 -380
-6 -49 -14 -133 -20 -186 -5 -52 -11 -113 -14 -135 -3 -21 -10 -83 -16 -136
-25 -236 -32 -298 -42 -378 -25 -201 -141 -328 -330 -360 -38 -7 -179 -10
-358 -8 l-295 3 1 95 c0 52 6 268 13 480 6 212 16 520 21 685 5 165 14 449 20
630 6 182 15 470 20 640 5 171 14 455 20 633 13 417 28 886 40 1287 6 176 14
457 20 625 5 168 12 413 15 545 4 132 8 250 11 261 3 17 23 28 96 52 145 47
208 73 413 172 106 51 143 67 220 101 42 18 143 47 207 59 107 21 280 -10 427
-77 l53 -24 -7 -52 c-4 -29 -11 -90 -15 -137 -9 -84 -22 -213 -40 -380 -5 -47
-14 -132 -20 -190 -6 -58 -15 -143 -20 -190 -5 -47 -14 -132 -20 -190 -6 -58
-15 -143 -20 -190 -5 -47 -14 -132 -20 -190 -6 -58 -15 -143 -20 -190 -5 -47
-14 -132 -20 -190 -6 -58 -15 -143 -20 -190 -5 -47 -14 -132 -20 -190 -6 -58
-15 -143 -20 -190 -5 -47 -14 -132 -20 -190 -6 -58 -15 -143 -20 -190 -5 -47
-14 -130 -20 -185 -5 -55 -14 -136 -19 -180 -4 -44 -6 -83 -2 -86 3 -4 86 -12
185 -19 202 -14 196 -16 196 62 0 26 4 80 9 120 6 40 15 120 21 178 6 58 15
147 20 197 6 51 15 136 20 188 6 52 15 138 20 190 6 52 15 138 20 190 6 52 15
138 20 190 6 52 15 138 20 190 6 52 15 138 20 190 6 52 15 138 20 190 6 52 15
138 20 190 6 52 15 138 20 190 6 52 15 138 20 190 6 52 15 138 20 190 6 52 15
138 20 190 6 52 14 137 20 188 5 50 15 138 21 195 l12 103 63 45 c282 201 442
584 380 906 -40 202 -117 348 -265 501 -181 187 -352 272 -616 305 l-60 7 -2
55 c-15 370 -209 709 -523 917 -201 133 -410 195 -655 196 -217 0 -367 -40
-544 -146 -36 -21 -70 -36 -77 -33 -7 3 -20 19 -29 36 -48 92 -209 262 -321
337 -108 72 -266 141 -394 172 -63 14 -318 21 -415 11z m315 -394 c259 -64
464 -230 569 -461 7 -16 17 -38 22 -47 5 -10 9 -24 9 -31 0 -20 68 -95 101
-112 15 -8 52 -15 82 -15 61 0 116 30 182 100 73 77 198 151 319 188 70 21
290 21 366 -1 174 -49 284 -111 393 -221 158 -161 224 -331 217 -566 -7 -266
-8 -253 23 -298 18 -25 47 -49 75 -63 42 -19 55 -21 127 -13 157 17 276 1 386
-52 202 -98 348 -316 349 -521 0 -161 -99 -357 -226 -444 l-45 -31 -62 30
c-191 92 -462 145 -619 122 -195 -28 -291 -63 -643 -230 -147 -70 -184 -86
-250 -109 -242 -86 -378 -67 -735 102 -378 178 -470 211 -667 237 -74 10 -112
10 -185 0 -197 -26 -303 -63 -663 -235 -250 -119 -365 -155 -493 -155 -126 1
-229 35 -529 176 -43 20 -105 49 -138 64 -171 80 -300 122 -450 146 -85 14
-115 15 -200 4 -174 -21 -313 -60 -455 -128 l-74 -35 -41 46 c-84 95 -147 224
-176 358 -15 72 -7 263 15 344 45 167 148 300 282 364 108 52 174 66 304 66
131 0 184 -10 278 -52 l52 -24 0 -129 c0 -159 13 -218 58 -271 83 -97 228 -91
298 14 l29 42 -3 160 c-5 276 35 441 149 610 109 161 275 274 481 324 98 24
307 29 400 10 138 -28 255 -73 368 -139 100 -59 199 -51 264 20 65 73 71 168
13 240 -37 47 -210 142 -332 183 -22 8 -41 21 -43 30 -5 23 71 131 137 198 85
84 198 155 301 187 19 6 49 16 65 21 45 14 252 12 315 -3z m-2480 -2821 c123
-31 200 -62 435 -175 140 -68 248 -112 360 -147 44 -14 84 -29 90 -34 5 -6 13
-114 17 -247 4 -130 12 -367 18 -527 6 -159 15 -432 20 -605 11 -360 25 -820
40 -1287 5 -178 14 -466 20 -640 16 -507 31 -981 62 -1983 7 -223 13 -452 13
-510 l0 -105 -330 4 c-360 4 -406 10 -478 60 -125 87 -167 171 -187 381 -6 58
-15 143 -20 190 -5 47 -14 132 -20 190 -6 58 -15 143 -20 190 -5 47 -14 132
-20 190 -6 58 -15 143 -20 190 -5 47 -14 132 -20 190 -6 58 -15 143 -20 190
-5 47 -14 132 -20 190 -6 58 -15 143 -20 190 -26 244 -32 302 -40 385 -5 50
-14 134 -20 188 -5 53 -14 140 -20 192 -5 52 -14 137 -20 188 -25 234 -31 298
-40 387 -6 52 -15 138 -20 190 -6 52 -15 138 -20 190 -6 52 -14 136 -19 185
-6 50 -15 137 -21 195 -6 58 -15 143 -20 190 -5 47 -14 132 -20 190 -6 58 -15
143 -20 190 -5 47 -14 132 -20 190 -6 58 -15 143 -20 190 -5 47 -14 132 -20
190 -6 58 -15 146 -21 195 -5 50 -14 135 -19 190 -20 206 -29 281 -35 332 l-7
51 42 22 c146 74 354 107 480 75z m2495 -5 c105 -26 206 -67 395 -157 212
-102 350 -156 495 -193 28 -7 54 -16 58 -20 7 -6 4 -151 -23 -935 -10 -286
-22 -647 -40 -1225 -6 -179 -15 -468 -20 -642 -6 -175 -15 -463 -20 -640 -6
-178 -15 -467 -20 -643 -19 -600 -29 -930 -39 -1280 -6 -192 -13 -387 -17
-432 l-6 -83 -898 0 -898 0 -6 83 c-4 45 -11 240 -17 432 -10 368 -14 498 -59
2008 -6 180 -14 474 -20 655 -5 180 -14 482 -20 672 -6 190 -15 485 -20 655
-5 171 -15 481 -22 690 -7 209 -13 450 -13 535 l0 154 65 17 c161 43 275 88
510 202 323 157 463 190 635 147z"/>
<path d="M7711 3023 c-39 -8 -106 -84 -119 -135 -21 -82 25 -176 105 -217 31
-16 129 -14 161 3 31 16 74 61 91 93 17 33 12 133 -8 167 -9 16 -34 43 -54 60
-31 24 -48 30 -95 32 -31 1 -68 0 -81 -3z"/>
</g>
</svg>
