<?xml version="1.0" encoding="UTF-8"?>
<svg version="1.1" xmlns="http://www.w3.org/2000/svg" width="2048" height="2048">
<path d="M0 0 C3.58134038 0.00812338 7.16264469 -0.00137453 10.74398126 -0.00851054 C17.03331988 -0.01865209 23.3225804 -0.01772293 29.61192065 -0.00945991 C39.02731622 0.00285414 48.44264882 -0.00222388 57.85804587 -0.01060784 C73.90723165 -0.02439136 89.95638888 -0.02396585 106.00557722 -0.0157652 C122.26635581 -0.00750709 138.52711562 -0.00577391 154.78789534 -0.01197721 C156.32932627 -0.01255849 156.32932627 -0.01255849 157.90189723 -0.01315151 C162.08734267 -0.01475135 166.2727881 -0.01639747 170.4582335 -0.01810233 C209.43057465 -0.03396576 248.40290321 -0.03504844 287.37524618 -0.02665998 C289.10706036 -0.0262874 289.10706036 -0.0262874 290.87386068 -0.02590729 C292.03025272 -0.0256585 293.18664477 -0.02540972 294.37807899 -0.02515339 C329.60418957 -0.01758473 364.83029494 -0.01562925 400.05640615 -0.01922132 C402.41504751 -0.01945376 404.77368886 -0.01968523 407.13233021 -0.01991573 C416.61068696 -0.02084713 426.08904371 -0.02180313 435.56740046 -0.02279502 C462.06374263 -0.0255461 488.56008483 -0.02725786 515.05642714 -0.02815343 C516.86632862 -0.02821484 516.86632862 -0.02821484 518.71279377 -0.02827749 C557.16258351 -0.02950539 595.61237145 -0.02612431 634.06216063 -0.0196047 C635.30931093 -0.01939395 636.55646124 -0.0191832 637.84140398 -0.01896607 C658.09446099 -0.0155312 678.34751796 -0.01187282 698.60057492 -0.00819555 C778.922073 0.0063726 859.24355607 0.00569815 939.56505407 -0.0088873 C959.80549888 -0.01255087 980.04594368 -0.01618402 1000.28638853 -0.0196047 C1002.15580159 -0.01992171 1002.15580159 -0.01992171 1004.06298058 -0.02024513 C1042.47079491 -0.02671375 1080.878608 -0.0294565 1119.28642286 -0.02815343 C1120.49216539 -0.02811268 1121.69790792 -0.02807193 1122.9401881 -0.02802994 C1149.40829485 -0.0270925 1175.87640147 -0.02519157 1202.34450809 -0.02242192 C1211.81503531 -0.0214345 1221.28556254 -0.02049526 1230.75608976 -0.01956979 C1233.11211704 -0.01933763 1235.46814432 -0.01910143 1237.82417159 -0.0188612 C1273.03961218 -0.01528037 1308.2550469 -0.01832988 1343.47048675 -0.02590729 C1344.62486394 -0.02615568 1345.77924113 -0.02640407 1346.96859945 -0.02665998 C1348.12084773 -0.02690803 1349.273096 -0.02715607 1350.46026089 -0.02741164 C1389.32212711 -0.03568602 1428.18397823 -0.03264307 1467.04584229 -0.01681775 C1471.21914111 -0.01516069 1475.39243995 -0.01355057 1479.56573881 -0.01197721 C1480.58993764 -0.01158659 1481.61413647 -0.01119597 1482.66937162 -0.01079351 C1498.8853696 -0.00487684 1515.1013488 -0.00899553 1531.31734508 -0.01728423 C1547.26324652 -0.02522105 1563.20911628 -0.02243259 1579.1550137 -0.00824196 C1588.50248291 -0.00024064 1597.84986524 -0.00039517 1607.19733029 -0.01268675 C1613.41002946 -0.02003304 1619.62266115 -0.01644891 1625.83535218 -0.00408619 C1629.35408702 0.00261401 1632.87264923 0.00479443 1636.39137615 -0.00653574 C1654.88700756 -0.05363504 1671.82126725 0.99247167 1689.56993689 6.41738223 C1692.69424043 7.3482664 1695.81764993 8.09762319 1698.99571814 8.81972598 C1704.04255602 10.05295064 1708.51025154 11.89375201 1713.18321814 14.14394473 C1715.57307905 15.27130471 1717.95680592 16.21612078 1720.43321814 17.13222598 C1734.02406094 22.48619435 1747.50035724 30.17364035 1758.80821814 39.38222598 C1759.59841345 40.00742129 1760.38860876 40.6326166 1761.20274939 41.27675723 C1783.19543934 58.72168577 1801.9940993 78.8012204 1815.80821814 103.38222598 C1816.31868689 104.28666445 1816.31868689 104.28666445 1816.83946814 105.20937441 C1822.49507962 115.3079793 1827.10419533 125.41877575 1830.80821814 136.38222598 C1831.16399939 137.42249941 1831.51978064 138.46277285 1831.88634314 139.53456973 C1834.05266208 146.21405315 1835.76984886 153.00107002 1837.43321814 159.81972598 C1837.74271399 161.07015689 1837.74271399 161.07015689 1838.05846228 162.34584902 C1841.43894383 176.58285071 1842.09852769 190.26029167 1842.06548704 204.81272887 C1842.06818374 206.87201123 1842.07175345 208.9312926 1842.07611151 210.99057211 C1842.08554221 216.64315138 1842.0825777 222.29566596 1842.07755597 227.94824835 C1842.07428375 234.10040168 1842.08257653 240.25254136 1842.08937432 246.40469031 C1842.09967535 257.18540305 1842.10258753 267.96609214 1842.10046209 278.74680804 C1842.09821092 290.31105058 1842.10028925 301.87528025 1842.10760702 313.43952082 C1842.10806633 314.17076035 1842.10852563 314.90199988 1842.10899886 315.65539819 C1842.1108822 318.6337903 1842.11279358 321.61218239 1842.11474124 324.59057446 C1842.13501586 355.64054376 1842.1411527 386.69050583 1842.14232546 417.740481 C1842.14245496 421.08134872 1842.14259084 424.42221644 1842.14273228 427.76308416 C1842.14276629 428.5921577 1842.14280029 429.42123125 1842.14283533 430.27542823 C1842.1436527 448.65827472 1842.14803402 467.04111983 1842.15304397 485.4239656 C1842.15510072 492.99653015 1842.1570808 500.56909473 1842.15907647 508.14165931 C1842.15940823 509.39676815 1842.15940823 509.39676815 1842.1597467 510.67723273 C1842.17239298 558.61962225 1842.18064515 606.56201087 1842.17972959 654.50440215 C1842.17969804 656.29813324 1842.17966657 658.09186434 1842.17963518 659.88559543 C1842.17948841 667.98389854 1842.17931208 676.08220164 1842.17912741 684.18050474 C1842.17904516 687.79164207 1842.17896487 691.40277939 1842.17888478 695.01391671 C1842.17884399 696.82135506 1842.17880195 698.62879341 1842.17875866 700.43623177 C1842.17739841 757.57961737 1842.19202952 814.72297818 1842.21983923 871.86635684 C1842.2268415 886.26242375 1842.23378053 900.65849068 1842.24036802 915.05455779 C1842.24097664 916.38426562 1842.24097664 916.38426562 1842.24159756 917.74083624 C1842.25403179 945.07232141 1842.26155951 972.40380454 1842.264084 999.73529242 C1842.2641639 1000.59367369 1842.2642438 1001.45205496 1842.26432612 1002.33644779 C1842.26603285 1021.18205705 1842.266555 1040.02766619 1842.26598537 1058.87327552 C1842.26579241 1065.61698514 1842.26568831 1072.36069475 1842.26562791 1079.10440437 C1842.26561208 1080.78201119 1842.26559167 1082.459618 1842.26556666 1084.13722482 C1842.26521435 1110.84291951 1842.27659656 1137.54859293 1842.29387429 1164.25428153 C1842.31119325 1191.16049393 1842.31554035 1218.06667693 1842.30235165 1244.97289257 C1842.30052722 1248.69603552 1842.29884062 1252.41917852 1842.29723562 1256.14232157 C1842.29675536 1257.23701024 1842.29675536 1257.23701024 1842.2962654 1258.35381384 C1842.29157097 1269.87994614 1842.30024765 1281.40602738 1842.314578 1292.93215008 C1842.3284082 1304.28337373 1842.32748275 1315.63450309 1842.31219372 1326.98573219 C1842.30443313 1333.05045776 1842.30287232 1339.11500329 1842.31910843 1345.17971615 C1842.33378242 1350.70953376 1842.32965831 1356.23902323 1842.31126069 1361.7688268 C1842.30785043 1363.74473756 1842.31096739 1365.72067475 1842.32186311 1367.69655841 C1842.39523468 1381.97138343 1840.60749601 1395.39600347 1837.80821814 1409.38222598 C1837.51435082 1410.91569499 1837.2211618 1412.44929422 1836.92881492 1413.98305382 C1832.59389986 1435.92616837 1821.51669841 1466.71070168 1805.25353064 1482.93300723 C1803.66444593 1484.52638676 1802.69845705 1486.10006521 1801.62071814 1488.06972598 C1801.02259314 1489.16285098 1800.42446814 1490.25597598 1799.80821814 1491.38222598 C1799.14821814 1491.38222598 1798.48821814 1491.38222598 1797.80821814 1491.38222598 C1797.5413822 1491.96746035 1797.27454626 1492.55269473 1796.99962439 1493.15566348 C1795.78290754 1495.42952774 1794.46772491 1497.09388512 1792.74571814 1499.00722598 C1792.12052282 1499.70331973 1791.49532751 1500.39941348 1790.85118689 1501.11660098 C1790.1770072 1501.86425723 1789.50282751 1502.61191348 1788.80821814 1503.38222598 C1788.12372595 1504.17113223 1787.43923376 1504.96003848 1786.73399939 1505.77285098 C1780.19552958 1513.23868006 1773.07782042 1520.80338366 1764.80821814 1526.38222598 C1764.14821814 1526.38222598 1763.48821814 1526.38222598 1762.80821814 1526.38222598 C1762.47821814 1527.37222598 1762.14821814 1528.36222598 1761.80821814 1529.38222598 C1760.27696814 1530.55800723 1760.27696814 1530.55800723 1758.30821814 1531.69472598 C1755.36183774 1533.44381399 1752.50461955 1535.25038942 1749.68321814 1537.19472598 C1738.97577274 1544.34524602 1727.64671086 1550.34238607 1715.80821814 1555.38222598 C1715.12227575 1555.67484316 1714.43633337 1555.96746035 1713.72960485 1556.26894473 C1692.23487127 1565.23691374 1667.7725505 1570.7355992 1644.46252729 1570.63407497 C1643.28371793 1570.63700384 1642.10490858 1570.6399327 1640.89037773 1570.64295032 C1637.63926955 1570.64902485 1634.38831319 1570.64624553 1631.13721079 1570.6396145 C1627.5791756 1570.63459758 1624.0211581 1570.64128138 1620.46312572 1570.64641817 C1614.21020386 1570.6538469 1607.95731609 1570.65386973 1601.70439219 1570.64902868 C1592.34344084 1570.64181721 1582.98251882 1570.64615609 1573.62156825 1570.65271003 C1557.66627173 1570.66353997 1541.71098701 1570.66486742 1525.75568785 1570.66101168 C1509.58717941 1570.65713563 1493.41867978 1570.65759013 1477.25017179 1570.66332148 C1475.71816981 1570.66385972 1475.71816981 1570.66385972 1474.15521828 1570.66440883 C1469.99544902 1570.66588375 1465.83567977 1570.66738814 1461.67591053 1570.6689303 C1419.44639343 1570.68456754 1377.21688237 1570.687244 1334.98736289 1570.68477424 C1329.1518115 1570.68443579 1323.31626012 1570.68411369 1317.48070873 1570.68380855 C1316.32163138 1570.68374751 1315.16255403 1570.68368647 1313.96835312 1570.68362357 C1288.28425802 1570.68235181 1262.60016375 1570.68495283 1236.91606889 1570.68833462 C1231.05187931 1570.68910536 1225.18768973 1570.68985009 1219.32350015 1570.69059963 C1216.96996896 1570.69090133 1214.61643778 1570.69120321 1212.2629066 1570.69150528 C1211.09630475 1570.69165496 1209.9297029 1570.69180464 1208.72774948 1570.69195885 C1206.36804391 1570.69226238 1204.00833833 1570.69256706 1201.64863276 1570.6928729 C1134.68708718 1570.70154678 1067.72554233 1570.70618923 1000.76399626 1570.70192526 C999.52392228 1570.70184721 998.2838483 1570.70176915 997.00619632 1570.70168873 C983.1779561 1570.70081592 969.34971589 1570.69988666 955.52147567 1570.6989381 C954.27298205 1570.69885259 953.02448843 1570.69876708 951.73816167 1570.69867898 C941.36405508 1570.69796817 941.36405508 1570.69796817 936.59113018 1570.69763675 C856.73380078 1570.692101 776.87648294 1570.69964267 697.01915564 1570.71840762 C676.89813757 1570.72312981 656.77711949 1570.72781031 636.65610136 1570.73224448 C635.41718001 1570.7325178 634.17825866 1570.73279112 632.90179423 1570.73307273 C594.71904235 1570.74144369 556.53629144 1570.74612366 518.35353865 1570.74695204 C517.15480763 1570.74697841 515.95607662 1570.74700478 514.72102042 1570.74703194 C488.40638002 1570.74757272 462.09173969 1570.74720028 435.77709931 1570.74599223 C426.36132692 1570.7455666 416.94555453 1570.74520148 407.52978213 1570.74486279 C405.18736867 1570.74477748 402.8449552 1570.74468855 400.50254174 1570.74459597 C363.17571602 1570.74314711 325.84889816 1570.75027405 288.52207432 1570.76159993 C249.88282252 1570.77324811 211.24358473 1570.77381569 172.60433286 1570.7617565 C168.45444554 1570.76050467 164.3045582 1570.75930119 160.15467085 1570.75813578 C159.13621861 1570.75784549 158.11776638 1570.75755519 157.06845195 1570.7572561 C140.94647948 1570.75293183 124.82452695 1570.75865958 108.70255761 1570.76857598 C92.84716836 1570.77811657 76.99180986 1570.77693355 61.13642239 1570.76436975 C51.84316648 1570.75732445 42.54999902 1570.75843734 33.25674943 1570.77171813 C27.07865082 1570.77972339 20.90061893 1570.77677764 14.72252641 1570.7650685 C11.22427913 1570.75874031 7.72620612 1570.75691256 4.22796878 1570.7686357 C-10.55408385 1570.80813414 -24.68370461 1570.33291708 -39.19178186 1567.38222598 C-40.38621442 1567.14529493 -41.58064698 1566.90836389 -42.81127446 1566.66425312 C-77.59730602 1559.5551075 -110.55306937 1544.06450033 -136.64490686 1519.74160098 C-138.76130923 1517.78100738 -140.91569678 1515.91742923 -143.12928186 1514.06972598 C-146.8283649 1510.85413305 -150.16781897 1507.34076018 -153.50428186 1503.75722598 C-154.02047083 1503.20639346 -154.53665979 1502.65556094 -155.06849085 1502.08803652 C-157.88508625 1499.01887731 -160.10506566 1496.00883817 -162.19178186 1492.38222598 C-162.99615686 1491.57785098 -163.80053186 1490.77347598 -164.62928186 1489.94472598 C-167.31565746 1487.25835038 -169.12511808 1484.56754263 -171.19178186 1481.38222598 C-171.55360559 1480.83880557 -171.91542933 1480.29538516 -172.28821741 1479.73549746 C-179.76646093 1468.48016745 -185.71696024 1456.72373277 -191.19178186 1444.38222598 C-191.52838831 1443.63779238 -191.86499476 1442.89335879 -192.2118014 1442.1263666 C-198.30168213 1428.47954007 -201.52656669 1414.04725287 -204.19178186 1399.38222598 C-204.35469155 1398.56128669 -204.51760123 1397.74034739 -204.68544757 1396.89453116 C-206.52665072 1386.61176158 -206.47143232 1376.47887517 -206.44625746 1366.06359767 C-206.44864982 1364.00427044 -206.45191663 1361.94494407 -206.45597406 1359.88561945 C-206.4645834 1354.22827927 -206.460772 1348.57100554 -206.45491833 1342.91366436 C-206.45074554 1336.75815007 -206.45815141 1330.60264786 -206.46407084 1324.44713651 C-206.47283524 1313.65908871 -206.47421268 1302.87106558 -206.47056757 1292.08301638 C-206.4666886 1280.51029504 -206.46715064 1268.937586 -206.47287737 1257.36486529 C-206.47323619 1256.63325253 -206.47359502 1255.90163977 -206.47396472 1255.14785693 C-206.47543967 1252.16798005 -206.47694407 1249.1881032 -206.47848619 1246.20822636 C-206.49411485 1215.97257007 -206.49680081 1185.73692224 -206.49433012 1155.50126264 C-206.49399167 1151.32452025 -206.49366957 1147.14777786 -206.49336444 1142.97103547 C-206.4933034 1142.14140861 -206.49324235 1141.31178176 -206.49317946 1140.4570147 C-206.49190714 1122.06487468 -206.49450973 1103.67273582 -206.49789051 1085.28059614 C-206.49866125 1081.07999723 -206.49940598 1076.8793983 -206.50015552 1072.67879939 C-206.50045721 1070.99290099 -206.50075909 1069.3070026 -206.50106116 1067.6211042 C-206.50121084 1066.78542865 -206.50136052 1065.9497531 -206.50151474 1065.08875405 C-206.50181827 1063.39840056 -206.50212295 1061.70804708 -206.50242878 1060.0176936 C-206.51110144 1012.05677313 -206.51574602 964.09585367 -206.51148115 916.1349325 C-206.5114031 915.24692652 -206.51132504 914.35892054 -206.51124462 913.44400529 C-206.51037183 903.54197509 -206.50944257 893.6399449 -206.50849398 883.73791471 C-206.50840847 882.84392122 -206.50832296 881.94992772 -206.50823486 881.02884351 C-206.5075241 873.60088829 -206.5075241 873.60088829 -206.50719264 870.18271192 C-206.50165741 813.00555791 -206.50919758 755.82842004 -206.52796351 698.65126895 C-206.53268581 684.2452396 -206.53736636 669.83921024 -206.54180037 655.4331808 C-206.54207369 654.54611722 -206.54234701 653.65905365 -206.54262861 652.74510937 C-206.55100144 625.40015746 -206.55567972 598.05520689 -206.55650793 570.7102537 C-206.5565343 569.85159117 -206.55656066 568.99292864 -206.55658783 568.10824603 C-206.55712864 549.25751536 -206.55675609 530.40678479 -206.55554811 511.55605415 C-206.5551225 504.810741 -206.55475737 498.06542784 -206.55441867 491.32011468 C-206.55433337 489.64208651 -206.55424444 487.96405834 -206.55415185 486.28603017 C-206.55270386 459.56245066 -206.55982432 432.83888213 -206.57115582 406.11530526 C-206.58281212 378.44652752 -206.58336269 350.77776937 -206.57131239 323.10899154 C-206.5700606 320.13532539 -206.56885711 317.16165922 -206.56769167 314.18799304 C-206.56740138 313.45821978 -206.56711108 312.72844653 -206.56681199 311.97655894 C-206.56249321 300.43950274 -206.56820588 288.90247445 -206.57813186 277.36542263 C-206.58768893 266.01016986 -206.58621672 254.65497094 -206.57392564 243.29971668 C-206.56766126 237.23006955 -206.56608912 231.16052321 -206.57778897 225.09088186 C-206.58834963 219.5612915 -206.58492471 214.03188707 -206.57068445 208.50230657 C-206.56797211 206.52197285 -206.57020106 204.54162403 -206.57819159 202.56130456 C-206.64177197 185.63921219 -204.58849451 169.53944855 -200.37928186 153.13222598 C-200.12428919 152.12425967 -199.86929651 151.11629336 -199.60657679 150.07778262 C-197.45522465 141.84838326 -194.66005638 134.14455466 -191.19178186 126.38222598 C-190.71225061 125.24785098 -190.23271936 124.11347598 -189.73865686 122.94472598 C-182.83571543 107.04704268 -174.33595292 91.71335336 -163.19178186 78.38222598 C-162.44025843 77.44765566 -161.68873499 76.51308535 -160.91443811 75.55019473 C-149.83604356 61.93549848 -137.56671447 49.48526182 -123.19178186 39.38222598 C-121.66507981 38.16035628 -120.14390615 36.93153558 -118.62928186 35.69472598 C-114.51678256 32.45594448 -110.12635157 30.03077442 -105.47693811 27.64394473 C-103.08673411 26.46200209 -103.08673411 26.46200209 -101.19178186 24.38222598 C-99.56165605 23.66904593 -97.9285121 22.96204918 -96.28162561 22.28847598 C-94.04214037 21.31733471 -91.91435579 20.20622356 -89.75428186 19.06972598 C-83.95953052 16.1277753 -77.9246978 13.93630573 -71.82850061 11.71425723 C-69.80983866 10.97487621 -67.79787615 10.21192351 -65.82459436 9.35878848 C-61.76744468 7.853911 -57.58793284 6.9319404 -53.37928186 5.94472598 C-52.5343014 5.74040957 -51.68932093 5.53609316 -50.81873499 5.32558535 C-49.02599679 4.90088501 -47.22936002 4.49237248 -45.42956206 4.09866204 C-43.31383714 3.63050746 -41.20381392 3.13557024 -39.10144276 2.61069299 C-26.1476304 -0.28862738 -13.21882789 -0.04247297 0 0 Z M-23.19178186 71.38222598 C-24.32473504 71.49630944 -25.45768821 71.6103929 -26.62497329 71.72793344 C-33.47828755 72.47363748 -39.85397898 74.84135495 -46.31678186 77.13222598 C-47.69543421 77.61683291 -47.69543421 77.61683291 -49.10193811 78.11122988 C-55.6301816 80.52185638 -61.3101912 83.69191707 -67.19178186 87.38222598 C-69.22463914 88.52306736 -71.26431558 89.65205182 -73.31678186 90.75722598 C-74.71283655 91.51132754 -74.71283655 91.51132754 -76.13709436 92.28066348 C-76.81514124 92.6441791 -77.49318811 93.00769473 -78.19178186 93.38222598 C-78.19178186 94.04222598 -78.19178186 94.70222598 -78.19178186 95.38222598 C-79.25719202 95.74380801 -79.25719202 95.74380801 -80.34412561 96.11269473 C-83.62191288 97.57398535 -85.99149823 99.40841685 -88.75428186 101.69472598 C-89.68369593 102.45398379 -90.61310999 103.2132416 -91.57068811 103.99550723 C-94.09986652 106.29852959 -96.11371627 108.67444353 -98.19178186 111.38222598 C-99.85844853 113.04889264 -101.5251152 114.71555931 -103.19178186 116.38222598 C-108.75145082 122.20854572 -113.12573455 128.43957673 -117.19178186 135.38222598 C-117.54530726 135.98147891 -117.89883265 136.58073184 -118.26307093 137.19814395 C-127.30675342 152.72797752 -133.61679536 169.39758277 -135.19178186 187.38222598 C-135.27179249 187.98377186 -135.35180312 188.58531773 -135.43423832 189.20509228 C-136.5729446 198.40658173 -136.331092 207.66869381 -136.32041632 216.92286585 C-136.32176361 218.93405201 -136.32354787 220.94523791 -136.32572855 222.95642333 C-136.33045806 228.49407686 -136.32895703 234.03171394 -136.32645078 239.56936827 C-136.32481833 245.58995447 -136.32895803 251.61053714 -136.33235996 257.63112222 C-136.33751639 268.18694924 -136.33896549 278.74277236 -136.33790384 289.29860018 C-136.33677912 300.62424562 -136.33781441 311.94988777 -136.34147631 323.27553271 C-136.34170596 323.99110045 -136.34193561 324.70666819 -136.34217223 325.4439198 C-136.34311387 328.35837675 -136.34406956 331.27283369 -136.34504342 334.18729063 C-136.35518678 364.58803147 -136.35824938 394.98877047 -136.35883553 425.38951281 C-136.35890027 428.66172411 -136.35896821 431.93393541 -136.35903894 435.2061467 C-136.35905594 436.01816473 -136.35907294 436.83018275 -136.35909046 437.66680738 C-136.35949898 455.6638668 -136.36168911 473.66092587 -136.36419478 491.65798511 C-136.36522315 499.06947657 -136.36621318 506.48096803 -136.36721103 513.8924595 C-136.36732162 514.71138082 -136.36743221 515.53030215 -136.36754615 516.37403927 C-136.37387034 563.30315144 -136.37799526 610.23226337 -136.37753759 657.16137599 C-136.37752182 658.91761754 -136.37750608 660.67385909 -136.37749039 662.43010064 C-136.377417 670.35930573 -136.37732883 678.28851083 -136.3772365 686.21771592 C-136.37719538 689.75351326 -136.37715523 693.28931061 -136.37711519 696.82510796 C-136.37709479 698.59483874 -136.37707377 700.36456951 -136.37705213 702.13430029 C-136.37637203 758.08331859 -136.38368666 814.03233055 -136.39759241 869.98134707 C-136.4010935 884.07544483 -136.40456299 898.16954259 -136.40785681 912.26364039 C-136.40805968 913.13149789 -136.40826256 913.99935538 -136.40847158 914.89351159 C-136.41468807 941.64833845 -136.41845244 968.40316479 -136.41971479 995.15799235 C-136.41975475 995.99818843 -136.4197947 996.83838451 -136.41983586 997.70404107 C-136.4206892 1016.1498895 -136.42095031 1034.5957379 -136.42066548 1053.04158635 C-136.420569 1059.64219236 -136.42051695 1066.24279838 -136.42048675 1072.84340439 C-136.42047884 1074.48543946 -136.42046863 1076.12747452 -136.42045613 1077.76950958 C-136.42027992 1103.91738423 -136.4259734 1130.06525346 -136.43460994 1156.21312655 C-136.44326676 1182.55633114 -136.44544527 1208.89952822 -136.43884862 1235.24273363 C-136.43793639 1238.88679195 -136.43709309 1242.53085028 -136.43629061 1246.17490862 C-136.43613052 1246.88921136 -136.43597043 1247.6035141 -136.43580549 1248.33946237 C-136.43345686 1259.6280472 -136.43779995 1270.91661902 -136.44496179 1282.2052014 C-136.45187121 1293.31834679 -136.45142038 1304.43147666 -136.44376966 1315.54462265 C-136.43988522 1321.48392352 -136.43912103 1327.42317839 -136.44722701 1333.36247602 C-136.45454919 1338.77498181 -136.45251872 1344.18740365 -136.44330314 1349.59990581 C-136.44159415 1351.53675421 -136.44316945 1353.47360932 -136.44860435 1355.41045084 C-136.49324951 1372.47563 -136.23760064 1389.78711256 -130.62928186 1406.06972598 C-130.1063656 1407.64089175 -130.1063656 1407.64089175 -129.57288538 1409.24379824 C-125.04961019 1422.3437253 -118.69952781 1434.41996764 -110.19178186 1445.38222598 C-109.1611764 1446.71640566 -109.1611764 1446.71640566 -108.10975061 1448.07753848 C-100.15965406 1458.0743324 -91.35862174 1466.66729679 -81.19178186 1474.38222598 C-80.36291468 1475.03964785 -79.53404749 1475.69706973 -78.68006311 1476.37441348 C-61.45019666 1489.61230788 -39.75772505 1497.41443338 -18.19178186 1499.38222598 C-16.88338449 1499.55057883 -15.57498712 1499.71893169 -14.22694134 1499.89238614 C-8.63481446 1500.51308276 -3.0825369 1500.52068097 2.53873844 1500.50872581 C3.69961403 1500.51025236 4.86048961 1500.5117789 6.05654324 1500.51335171 C9.27590056 1500.51657457 12.49522024 1500.51533532 15.71457649 1500.51220584 C19.23115207 1500.50989789 22.74772276 1500.51341298 26.26429735 1500.51617266 C32.45033609 1500.52022401 38.63636643 1500.52055337 44.82240602 1500.51846672 C54.08325326 1500.51536003 63.34409278 1500.51800425 72.60493946 1500.52176543 C88.38801636 1500.5280036 104.17109051 1500.52947089 119.95416845 1500.52834796 C135.95180869 1500.52722409 151.94944659 1500.52825554 167.94708647 1500.53192042 C168.95701892 1500.53215007 169.96695138 1500.53237973 171.00748785 1500.53261634 C175.12070984 1500.53355796 179.23393183 1500.53451365 183.34715382 1500.53548753 C226.27377406 1500.54563632 269.200393 1500.54869368 312.1270143 1500.54927964 C316.74877411 1500.54934439 321.37053392 1500.54941233 325.99229373 1500.54948305 C327.13917062 1500.54950005 328.28604751 1500.54951706 329.46767824 1500.54953458 C354.87344697 1500.5499429 380.27921544 1500.55213237 405.68498402 1500.55463889 C416.14363231 1500.55566724 426.6022806 1500.55665726 437.0609289 1500.55765514 C438.79427709 1500.55782103 438.79427709 1500.55782103 440.56264241 1500.55799026 C506.79091951 1500.5643152 573.01919644 1500.56843929 639.24747385 1500.56798171 C641.72644827 1500.56796593 644.20542268 1500.56795019 646.6843971 1500.5679345 C657.87696355 1500.56786111 669.06953001 1500.56777294 680.26209647 1500.56768061 C685.2532281 1500.56763949 690.24435972 1500.56759934 695.23549134 1500.5675593 C697.73364403 1500.56753891 700.23179671 1500.56751789 702.72994939 1500.56749624 C781.72715091 1500.56681597 860.72434795 1500.5741334 939.72154821 1500.58803652 C959.62481797 1500.59153749 979.52808773 1500.59500693 999.43135752 1500.59830092 C1001.26959586 1500.59860523 1001.26959586 1500.59860523 1003.14497033 1500.59891569 C1040.91077863 1500.60512987 1078.67658656 1500.6088961 1116.44239534 1500.61015891 C1117.6279527 1500.61019886 1118.81351006 1500.61023881 1120.0349934 1500.61027997 C1146.05986741 1500.61113321 1172.0847414 1500.61139445 1198.10961542 1500.61110959 C1207.42163835 1500.61101311 1216.73366128 1500.61096107 1226.04568421 1500.61093086 C1228.36231686 1500.61092295 1230.67894951 1500.61091275 1232.99558216 1500.61090024 C1269.92085142 1500.61072386 1306.84611684 1500.61642421 1343.771385 1500.62505406 C1380.95931926 1500.63370111 1418.14724822 1500.63589773 1455.33518306 1500.62929273 C1460.47330282 1500.62838043 1465.61142259 1500.62753715 1470.74954237 1500.62673472 C1471.75675911 1500.62657463 1472.76397585 1500.62641455 1473.80171431 1500.62624961 C1489.75371756 1500.62389608 1505.70571162 1500.6282554 1521.65771314 1500.63540591 C1537.34136045 1500.64229578 1553.02499419 1500.64205374 1568.7086412 1500.63421377 C1577.90438941 1500.62983035 1587.10009766 1500.63090884 1596.29584257 1500.64008056 C1602.40558677 1500.64562691 1608.51530119 1500.64389932 1614.6250431 1500.63629777 C1618.08685391 1500.63219295 1621.54858616 1500.63112876 1625.01039212 1500.63904846 C1643.55656592 1500.67303614 1660.67693113 1500.42393346 1678.37071814 1494.25722598 C1679.53530554 1493.8590668 1680.69989294 1493.46090762 1681.89977087 1493.05068301 C1711.60019558 1482.61153756 1740.74450778 1459.98092089 1754.93321814 1431.31972598 C1755.38374548 1430.35679629 1755.38374548 1430.35679629 1755.84337439 1429.37441348 C1756.91494355 1427.16186175 1758.13262407 1425.06822263 1759.37071814 1422.94472598 C1761.35420527 1419.38771258 1762.81663585 1415.94897012 1763.99181189 1412.05410098 C1764.6177295 1410.00564331 1765.31016677 1407.97741126 1766.03087439 1405.96035098 C1768.56267966 1398.74130434 1770.24213299 1391.76361806 1770.94483174 1384.13745211 C1771.0682756 1382.8390284 1771.0682756 1382.8390284 1771.19421327 1381.51437392 C1772.04000345 1371.8806514 1772.08554915 1362.27487405 1772.05990042 1352.61110781 C1772.06199221 1350.58826595 1772.06495878 1348.56542483 1772.06870915 1346.54258536 C1772.07644386 1341.01917354 1772.07186564 1335.49583233 1772.06515324 1329.97242175 C1772.0600555 1323.94990818 1772.06660928 1317.92740499 1772.07163991 1311.90489291 C1772.07884823 1301.36118824 1772.07872125 1290.8175013 1772.07354559 1280.27379702 C1772.06802999 1268.96847506 1772.06689288 1257.66316512 1772.07102026 1246.35784243 C1772.07140778 1245.28406044 1772.07140778 1245.28406044 1772.07180312 1244.18858588 C1772.07286975 1241.27269772 1772.07396717 1238.35680958 1772.07510368 1235.44092145 C1772.08566552 1208.32345361 1772.08640719 1181.20599381 1772.08080877 1154.08852481 C1772.08056039 1152.88481176 1772.08056039 1152.88481176 1772.08030698 1151.65678127 C1772.08014112 1150.8530123 1772.07997526 1150.04924333 1772.07980438 1149.22111772 C1772.07475384 1124.71321469 1772.07345716 1100.20531497 1772.07584967 1075.69741152 C1772.07600463 1074.05492008 1772.07615894 1072.41242864 1772.07631261 1070.7699372 C1772.07693356 1064.16909827 1772.0775709 1057.56825934 1772.07823213 1050.96742042 C1772.08006596 1032.51645557 1772.0812073 1014.06549071 1772.08180441 995.61452578 C1772.08184535 994.35430777 1772.08184535 994.35430777 1772.08188711 993.06863081 C1772.08270541 966.30634074 1772.0804532 939.54405182 1772.07610525 912.78176211 C1772.07596475 911.91401849 1772.07582425 911.04627487 1772.0756795 910.15223599 C1772.07338973 896.06150536 1772.07095074 881.97077474 1772.06849915 867.88004413 C1772.05878682 811.99795571 1772.05923762 756.11587686 1772.06896032 700.23378848 C1772.07140279 686.15008894 1772.07382493 672.06638941 1772.07610525 657.98268984 C1772.07624615 657.11545213 1772.07638704 656.24821441 1772.07653221 655.35469676 C1772.08084592 628.61977308 1772.08267287 601.88485019 1772.08180441 575.14992617 C1772.08177724 574.31040129 1772.08175007 573.4708764 1772.08172208 572.60591137 C1772.08109707 554.17529056 1772.07982968 535.74466983 1772.0779834 517.3140491 C1772.07732515 510.7191854 1772.07669898 504.12432169 1772.07608198 497.52945798 C1772.0759272 495.88889548 1772.07576974 494.24833298 1772.07560959 492.60777048 C1772.07322443 468.10773581 1772.07525136 443.60770489 1772.08030698 419.10767068 C1772.08047257 418.30519532 1772.08063816 417.50271995 1772.08080877 416.67592715 C1772.08097414 415.87493849 1772.0811395 415.07394982 1772.08130988 414.24868877 C1772.08683142 387.20789388 1772.08478675 360.16710862 1772.07424728 333.1263151 C1772.07314263 330.21974659 1772.07206921 327.31317806 1772.07102026 324.40660952 C1772.07062964 323.33666031 1772.07062964 323.33666031 1772.07023113 322.24509597 C1772.0662938 310.9726091 1772.06902487 299.70013427 1772.07455827 288.4276485 C1772.0798624 277.33062217 1772.07779949 266.23361245 1772.0685301 255.13658764 C1772.0637778 249.20610553 1772.06213497 243.27566879 1772.06934206 237.34518813 C1772.0758427 231.94080591 1772.07300053 226.53650898 1772.06298074 221.13213287 C1772.06098094 219.19824944 1772.06225989 217.26435881 1772.06739262 215.33048116 C1772.09116411 205.68263002 1771.84394826 196.14534201 1770.90796651 186.53788851 C1770.78980396 185.31804313 1770.78980396 185.31804313 1770.66925428 184.07355441 C1769.90147228 176.95060193 1768.16748104 170.44859292 1765.74571814 163.69472598 C1765.15017126 161.97938662 1765.15017126 161.97938662 1764.54259314 160.22939395 C1758.96912506 144.65401215 1750.98919316 127.93271575 1738.80821814 116.38222598 C1735.95229736 113.60146101 1733.31218908 110.78937725 1730.80821814 107.69472598 C1728.36133385 104.76855507 1726.41500911 103.68467827 1722.80821814 102.38222598 C1722.12451364 101.05754851 1721.45857628 99.72358965 1720.80821814 98.38222598 C1717.59453828 96.03724476 1717.59453828 96.03724476 1713.80821814 95.38222598 C1713.80821814 94.72222598 1713.80821814 94.06222598 1713.80821814 93.38222598 C1697.05193027 83.17651214 1679.59954475 73.91390318 1659.87071814 71.31972598 C1658.7273197 71.16374941 1657.58392126 71.00777285 1656.40587439 70.84706973 C1640.41182102 69.10384566 1624.40198466 69.24025593 1608.33527006 69.25359152 C1605.53149337 69.25279845 1602.72771834 69.25050016 1599.92394246 69.24827929 C1593.82428307 69.24424343 1587.72463222 69.24389162 1581.62497198 69.24598523 C1572.49345801 69.24910223 1563.36195181 69.24643983 1554.2304384 69.24268653 C1538.66477924 69.23645975 1523.09912287 69.23497938 1507.53346266 69.236104 C1491.76290308 69.23722906 1475.99234585 69.23619225 1460.22178663 69.23253153 C1459.22506497 69.23230188 1458.22834331 69.23207223 1457.20141797 69.23183562 C1453.14179962 69.23089396 1449.08218128 69.22993827 1445.02256295 69.22896443 C1402.68827363 69.21882392 1360.35398562 69.21575859 1318.01969522 69.21517232 C1313.46395859 69.21510757 1308.90822195 69.21503963 1304.35248531 69.21496891 C1303.22195562 69.2149519 1302.09142593 69.2149349 1300.92663776 69.21491738 C1275.86799071 69.21450882 1250.80934392 69.2123186 1225.750697 69.20981306 C1215.43066533 69.2087847 1205.11063366 69.20779466 1194.79060198 69.20679681 C1193.65031074 69.20668622 1192.51001949 69.20657563 1191.33517396 69.20646169 C1125.99648128 69.20013816 1060.65778875 69.19601252 995.31909574 69.19647025 C992.87421576 69.19648603 990.42933578 69.19650176 987.98445579 69.19651746 C976.9461464 69.19659084 965.907837 69.19667901 954.8695276 69.19677134 C949.94731265 69.19681246 945.0250977 69.19685261 940.10288275 69.19689265 C937.63922665 69.19691305 935.17557056 69.19693407 932.71191446 69.19695571 C854.80488614 69.19763599 776.89786237 69.19031788 698.99083532 69.17641543 C679.36089085 69.17291439 659.73094638 69.16944492 640.10100187 69.16615103 C638.89229386 69.16594816 637.68358585 69.16574529 636.43825032 69.16553626 C599.18273347 69.15932096 561.927217 69.15555565 524.67169966 69.15429305 C523.50196795 69.1542531 522.33223624 69.15421315 521.12705812 69.15417198 C495.44822478 69.1533187 469.76939146 69.15305752 444.09055811 69.15334236 C434.90216117 69.15343884 425.71376423 69.15349089 416.52536728 69.15352109 C414.2395494 69.153529 411.95373151 69.15353921 409.66791363 69.15355171 C373.25375173 69.153728 336.83959373 69.14803165 300.42543296 69.1393979 C263.74846369 69.13074603 227.0714998 69.12855839 190.39452994 69.13515922 C185.32403864 69.13607149 180.25354733 69.13691477 175.18305601 69.13771723 C173.69215938 69.13795736 173.69215938 69.13795736 172.17114362 69.13820235 C156.4470955 69.14055335 140.72305671 69.13620242 124.99901034 69.12904605 C109.52924466 69.12214614 94.05949273 69.12240983 78.58972735 69.13023818 C69.52640279 69.13461205 60.46311879 69.13356597 51.3997976 69.1243714 C45.37017091 69.11880552 39.34057429 69.12057738 33.31094988 69.12815418 C29.8996164 69.13224031 26.48842662 69.13223932 23.07708825 69.12540349 C7.53030611 69.09634687 -7.73762336 69.66019685 -23.19178186 71.38222598 Z " fill="#111219" transform="translate(206.19178186450154,477.6177740227431)"/>
<path d="M0 0 C7.61226463 0.37536397 15.22442892 0.70428834 22.84091187 0.98040771 C45.28057124 1.80656388 67.63574398 3.22952201 90.01669312 5.01947021 C90.69627705 5.07367882 91.37586098 5.12788742 92.07603836 5.18373871 C105.64973757 6.26836635 119.21288201 7.39517043 132.74919128 8.88122559 C137.76759175 9.42724519 142.77448695 9.81374338 147.81332397 10.10150146 C163.46327866 11.01081392 178.92461156 13.14075234 194.44003296 15.3114624 C196.28713633 15.56876247 198.13430385 15.8256025 199.98153687 16.08197021 C201.34361771 16.27125092 201.34361771 16.27125092 202.73321533 16.46435547 C208.8526482 17.29720967 214.97305303 17.95120379 221.12216187 18.51947021 C230.25235753 19.37361616 239.19580185 20.83000577 248.20419312 22.51947021 C251.04464034 23.04415944 253.88597795 23.56385374 256.72763062 24.08197021 C257.41283783 24.20817245 258.09804504 24.33437469 258.80401611 24.46440125 C263.26840577 25.27513601 267.7356141 25.93190253 272.23544312 26.52337646 C278.02590308 27.32277178 283.40643222 28.64275187 288.95419312 30.45697021 C294.16864069 32.11997919 299.35313431 33.66982998 304.68075562 34.93353271 C311.00300382 36.48252898 317.0061583 38.63104448 323.07919312 40.95697021 C324.10270874 41.33917725 325.12622437 41.72138428 326.18075562 42.11517334 C331.92428287 44.28929773 337.36808645 46.71674366 342.82919312 49.51947021 C344.31943285 50.10734076 345.81836589 50.6742345 347.32919312 51.20697021 C354.90029887 54.15324548 361.81693617 58.45813747 368.82919312 62.51947021 C373.28114896 65.10783447 373.28114896 65.10783447 377.82919312 67.51947021 C377.82919312 68.17947021 377.82919312 68.83947021 377.82919312 69.51947021 C378.5446228 69.77212646 379.26005249 70.02478271 379.99716187 70.28509521 C383.07399597 71.62617049 385.45445265 73.26278992 388.14169312 75.26947021 C389.09302124 75.97845459 390.04434937 76.68743896 391.02450562 77.41790771 C391.95005249 78.11142334 392.87559937 78.80493896 393.82919312 79.51947021 C394.65161499 80.10986084 395.47403687 80.70025146 396.32138062 81.30853271 C397.04583374 81.83189209 397.77028687 82.35525146 398.51669312 82.89447021 C399.1599353 83.35595459 399.80317749 83.81743896 400.46591187 84.29290771 C400.91579468 84.69767334 401.36567749 85.10243896 401.82919312 85.51947021 C401.82919312 86.17947021 401.82919312 86.83947021 401.82919312 87.51947021 C402.40669312 87.78759521 402.98419312 88.05572021 403.57919312 88.33197021 C405.88469354 89.54876211 407.84975504 90.82280901 409.82919312 92.51947021 C409.82919312 93.17947021 409.82919312 93.83947021 409.82919312 94.51947021 C410.38606812 94.74634521 410.94294312 94.97322021 411.51669312 95.20697021 C414.50124061 96.90090257 416.45573357 99.0356172 418.82919312 101.51947021 C419.95321947 102.62462802 421.07828408 103.72873049 422.20419312 104.83197021 C427.39080936 110.02991094 432.07033805 115.19775943 435.82919312 121.51947021 C436.57169312 122.22072021 437.31419312 122.92197021 438.07919312 123.64447021 C442.71030626 128.4860885 445.9291271 134.32323514 449.34091187 140.06243896 C450.83684245 142.53209864 452.42130711 144.9256279 454.01669312 147.33197021 C460.46671392 157.44429097 465.59908595 168.30968624 469.82919312 179.51947021 C470.49527431 181.12388007 471.16195809 182.72803987 471.82919312 184.33197021 C473.77570136 189.19824082 475.32630301 194.1477814 476.82528687 199.16790771 C477.4839924 201.36701025 478.16306304 203.56013646 478.86434937 205.74603271 C480.95007456 212.26491525 482.61541997 218.75070244 483.97763062 225.45697021 C484.61611164 228.57491227 485.3246441 231.67195374 486.05575562 234.76947021 C486.27562134 235.70734375 486.49548706 236.64521729 486.72201538 237.61151123 C487.15206346 239.43878441 487.58702858 241.26491125 488.02816772 243.08953857 C489.53224527 249.53227169 490.45243423 255.9624527 491.28207397 262.52362061 C491.82174785 266.62366662 492.52438821 270.68618303 493.26669312 274.75384521 C493.39353989 275.45143448 493.52038666 276.14902374 493.65107727 276.86775208 C494.17017647 279.70743666 494.69389458 282.5462077 495.22470093 285.38372803 C496.88236835 294.28083629 498.18146988 303.12422764 499.06210327 312.13243103 C499.65750586 318.13939587 500.41885129 324.10952489 501.26669312 330.08587646 C501.39358521 330.98585358 501.52047729 331.88583069 501.6512146 332.81307983 C502.16990015 336.4772123 502.69237897 340.14073954 503.22470093 343.80291748 C505.10441143 356.78714606 506.39183358 369.72509829 507.32870483 382.8102417 C507.8204032 389.60288768 508.43534938 396.38074152 509.08309937 403.16009521 C509.19020233 404.28286362 509.2973053 405.40563202 509.40765381 406.56242371 C509.7338803 409.96494736 510.06246814 413.36723548 510.39169312 416.76947021 C512.37677066 437.33631728 513.94545211 457.8106869 514.76669312 478.45697021 C514.94039727 482.75517884 515.11532233 487.05333762 515.29013062 491.35150146 C515.33434647 492.44424377 515.37856232 493.53698608 515.42411804 494.6628418 C515.72368679 502.03632965 516.04048988 509.40890484 516.36825562 516.78118896 C516.45692622 518.79363804 516.54554971 520.8060892 516.63412476 522.81854248 C516.7586844 525.64755931 516.88402096 528.47652062 517.01324463 531.30532837 C518.70957778 568.49659125 519.03099787 605.66934129 519.01669312 642.89447021 C519.0167493 645.33824666 519.01681037 647.78202311 519.01687622 650.22579956 C519.00930362 688.02721985 518.58286011 725.75442053 516.82919312 763.51947021 C516.76058075 765.00193237 516.76058075 765.00193237 516.69058228 766.51434326 C516.29062337 775.06375591 515.85949898 783.61097626 515.37811279 792.15618896 C514.98670316 799.12182545 514.70835204 806.08089359 514.53890991 813.05584717 C513.8246093 841.73285533 510.93085705 870.41401798 507.82699585 898.92132568 C507.16747112 905.01535203 506.62719419 911.09724909 506.21640015 917.21282959 C505.21705277 931.8829559 503.15148242 946.37522607 501.03695679 960.918396 C500.77996468 962.69033422 500.52320757 964.46230654 500.26669312 966.23431396 C500.07748795 967.53836433 500.07748795 967.53836433 499.88446045 968.86875916 C499.0795158 974.50585183 498.41272771 980.14503979 497.82528687 985.80853271 C496.93571054 994.28057744 495.49118425 1002.59392009 493.89169312 1010.95697021 C493.34639741 1013.85343279 492.80571414 1016.75074018 492.26669312 1019.64837646 C492.07195152 1020.69185242 492.07195152 1020.69185242 491.87327576 1021.75640869 C491.04490902 1026.23413937 490.32467524 1030.71394513 489.69564819 1035.22332764 C486.10274117 1060.88736147 477.79181379 1086.09856644 466.82919312 1109.51947021 C466.41153687 1110.42535889 465.99388062 1111.33124756 465.56356812 1112.2645874 C457.89664316 1128.84695032 449.67169412 1144.77015711 438.82919312 1159.51947021 C437.89328463 1160.83124831 436.95848307 1162.14381653 436.02450562 1163.45697021 C435.02249919 1164.8532327 434.01989419 1166.24906583 433.01669312 1167.64447021 C432.53595337 1168.32138916 432.05521362 1168.99830811 431.55990601 1169.69573975 C430.3656067 1171.34057803 429.10286689 1172.93529885 427.82919312 1174.51947021 C427.16919312 1174.51947021 426.50919312 1174.51947021 425.82919312 1174.51947021 C425.42700562 1175.66415771 425.42700562 1175.66415771 425.01669312 1176.83197021 C423.87784806 1179.40935639 423.01502641 1180.78901886 420.82919312 1182.51947021 C420.16919312 1182.51947021 419.50919312 1182.51947021 418.82919312 1182.51947021 C418.62294312 1183.24134521 418.41669312 1183.96322021 418.20419312 1184.70697021 C416.72613146 1187.73027814 415.0279126 1189.17479804 412.39559937 1191.21087646 C410.38041205 1192.89438706 408.84912923 1194.90573677 407.20419312 1196.94134521 C402.31642062 1202.55117501 396.04662905 1206.99752098 390.26669312 1211.64447021 C389.64165894 1212.14736572 389.01662476 1212.65026123 388.37265015 1213.168396 C382.12974417 1218.14928108 375.78957454 1222.59634614 368.82919312 1226.51947021 C367.92169312 1227.13822021 367.01419312 1227.75697021 366.07919312 1228.39447021 C345.17634217 1242.06171891 319.93980331 1252.20550709 295.41903687 1256.81243896 C291.71140537 1257.54266889 288.06952014 1258.43321704 284.40438843 1259.34881592 C275.11901628 1261.65504714 265.90285346 1263.39431302 256.43075562 1264.70697021 C250.97039538 1265.47249717 245.54542015 1266.41343695 240.11312866 1267.35540771 C227.25571928 1269.57515722 214.43846205 1271.36460128 201.46200562 1272.70306396 C195.57260452 1273.31498088 189.69742489 1274.01359307 183.82138062 1274.74212646 C182.01116188 1274.96480399 180.2009405 1275.18746001 178.39071655 1275.41009521 C175.73395758 1275.73721184 173.0775552 1276.06629348 170.42208862 1276.40374756 C158.35616211 1277.93445958 146.30625703 1278.96221285 134.16952515 1279.75323486 C120.41267497 1280.65511062 106.68625649 1281.86619468 92.95419312 1283.08197021 C71.8701336 1284.94153287 50.8530013 1286.53429891 29.70419312 1287.39447021 C25.48409689 1287.56789118 21.26405456 1287.74258655 17.04403687 1287.91790771 C15.91802567 1287.96457581 14.79201447 1288.0112439 13.63188171 1288.05932617 C6.22009139 1288.36935898 -1.19045341 1288.70114187 -8.60063267 1289.0474987 C-39.78535603 1290.50401091 -70.96986438 1291.78459614 -102.17861938 1292.59759521 C-102.99470539 1292.61901423 -103.81079139 1292.64043325 -104.65160728 1292.66250134 C-143.26056331 1293.66961126 -181.85843432 1293.82876883 -220.47860938 1293.77660847 C-226.69919142 1293.76907469 -232.91970961 1293.77179269 -239.14028931 1293.7802124 C-278.52183881 1293.83212283 -317.87495192 1293.57429124 -357.24502563 1292.56634521 C-358.09079674 1292.54469457 -358.93656785 1292.52304392 -359.80796838 1292.50073719 C-396.72815767 1291.54856307 -433.62661878 1290.15705563 -470.50869751 1288.21673584 C-477.64373442 1287.84756794 -484.77438978 1287.5211436 -491.91665649 1287.32440186 C-509.7392141 1286.82780613 -527.448697 1285.73192519 -545.21109009 1284.24957275 C-547.92709126 1284.02446895 -550.64359916 1283.80587164 -553.36014557 1283.58746147 C-566.39368427 1282.53918958 -579.41836293 1281.42891144 -592.43183899 1280.15455627 C-597.6938386 1279.64399127 -602.95094965 1279.24442573 -608.22915649 1278.93743896 C-624.26899329 1277.9809158 -640.151198 1275.84648316 -656.07070923 1273.72747803 C-658.00898261 1273.4703372 -659.94729605 1273.2134982 -661.88565063 1272.95697021 C-663.31226517 1272.76768951 -663.31226517 1272.76768951 -664.7677002 1272.57458496 C-671.01151426 1271.76047972 -677.25688514 1271.10014616 -683.52627563 1270.51947021 C-692.634227 1269.66345996 -701.55897889 1268.20489061 -710.54580688 1266.51947021 C-713.38625396 1265.99478102 -716.22756638 1265.47494749 -719.06924438 1264.95697021 C-720.09630745 1264.76827866 -720.09630745 1264.76827866 -721.14411926 1264.57577515 C-725.62357176 1263.76394485 -730.10757047 1263.08959979 -734.62002563 1262.48040771 C-740.0831922 1261.72574073 -745.30512883 1260.64229208 -750.60830688 1259.14447021 C-752.24105103 1258.69630445 -753.87386434 1258.24839057 -755.50674438 1257.80072021 C-756.29661743 1257.58157959 -757.08649048 1257.36243896 -757.90029907 1257.13665771 C-759.95587642 1256.57789432 -762.01525567 1256.05451479 -764.08486938 1255.55072021 C-788.22227725 1249.55513282 -816.33327056 1238.67986383 -836.17080688 1223.51947021 C-836.91072876 1223.07603271 -837.65065063 1222.63259521 -838.41299438 1222.17572021 C-842.14275563 1219.93575029 -845.71020089 1217.48171695 -849.29580688 1215.01947021 C-850.01123657 1214.53349365 -850.72666626 1214.04751709 -851.46377563 1213.54681396 C-852.15342407 1213.07372803 -852.84307251 1212.60064209 -853.55361938 1212.11322021 C-854.48778687 1211.47416748 -854.48778687 1211.47416748 -855.44082642 1210.82220459 C-857.18639519 1209.50773169 -858.64861924 1208.08325054 -860.17080688 1206.51947021 C-861.84691937 1205.13061162 -863.53592872 1203.75725729 -865.23330688 1202.39447021 C-873.52864895 1195.63327331 -881.35729607 1188.79194471 -888.17080688 1180.51947021 C-889.2168811 1179.27036865 -889.2168811 1179.27036865 -890.28408813 1177.99603271 C-899.95777812 1166.33414047 -909.52210059 1154.28491701 -916.82363892 1140.97479248 C-918.17445065 1138.51282917 -919.54731507 1136.06429885 -920.92471313 1133.61712646 C-921.86114133 1131.93886952 -922.79733787 1130.26048329 -923.73330688 1128.58197021 C-924.2018811 1127.7524585 -924.67045532 1126.92294678 -925.15322876 1126.06829834 C-927.92408852 1121.08075076 -930.27409677 1116.08982752 -932.30386353 1110.75604248 C-933.14216941 1108.59335023 -934.06874813 1106.49752142 -935.04580688 1104.39447021 C-941.09219827 1090.83732702 -945.31855615 1076.8298269 -949.17080688 1062.51947021 C-949.37480103 1061.77068604 -949.57879517 1061.02190186 -949.78897095 1060.25042725 C-951.61081742 1053.51637712 -953.14628054 1046.91782125 -954.09268188 1039.99993896 C-955.32379932 1031.06603525 -957.14167559 1022.26738012 -958.95986938 1013.43743896 C-960.48047062 1005.82675299 -961.60881882 998.28598273 -962.40371704 990.56608582 C-963.00262508 984.81550894 -963.76327544 979.10215022 -964.60830688 973.38275146 C-964.79864502 972.08762131 -964.79864502 972.08762131 -964.99282837 970.7663269 C-965.51219022 967.24681897 -966.03564419 963.7279654 -966.5663147 960.21014404 C-968.19562507 949.36997425 -969.51520656 938.56630329 -970.40371704 927.63955688 C-971.03428468 919.90908338 -971.79775542 912.19789553 -972.60830688 904.48431396 C-975.27050307 878.98452252 -977.78864179 853.55414387 -978.83886719 827.9289856 C-979.11321152 821.39857597 -979.48644956 814.87584646 -979.87783813 808.35150146 C-980.71232103 794.41094376 -981.46443391 780.46708549 -982.17080688 766.51947021 C-982.22621643 765.44666809 -982.28162598 764.37386597 -982.3387146 763.26855469 C-986.43949245 683.10291441 -986.2205146 601.68056748 -982.17080688 521.51947021 C-982.11517578 520.39095642 -982.05954468 519.26244263 -982.00222778 518.09973145 C-981.32814871 504.43780638 -980.576901 490.78181244 -979.74533081 477.12858582 C-979.36431983 470.85311257 -979.00854986 464.57709264 -978.68078613 458.2986145 C-977.15407479 429.10581128 -974.4474404 400.12840899 -971.20027161 371.07809448 C-970.42861377 364.10666374 -969.76951739 357.13296359 -969.17471313 350.14447021 C-968.26216331 339.596126 -966.78102834 329.16843985 -965.17080688 318.70697021 C-964.64627442 315.26351169 -964.12591732 311.81944447 -963.60830688 308.37493896 C-963.48210464 307.53965668 -963.3559024 306.70437439 -963.22587585 305.84378052 C-962.42723112 300.4809873 -961.75927435 295.115582 -961.16690063 289.72650146 C-960.27612157 281.72788169 -958.83540844 273.909282 -957.23330688 266.01947021 C-956.69148145 263.30907964 -956.15365636 260.59790162 -955.61611938 257.88665771 C-955.36249634 256.61016357 -955.10887329 255.33366943 -954.8475647 254.01849365 C-954.01981176 249.73878402 -953.30445056 245.44700312 -952.60830688 241.14447021 C-951.39097401 234.04936439 -949.47662401 227.30157993 -947.35440063 220.43743896 C-946.34364815 217.15742485 -945.50465744 213.86503207 -944.73330688 210.51947021 C-941.4263457 196.99603119 -935.98255378 184.13027724 -930.17080688 171.51947021 C-929.77812622 170.66176025 -929.38544556 169.80405029 -928.98086548 168.92034912 C-927.7007871 166.13574702 -926.40700791 163.35793145 -925.10830688 160.58197021 C-924.70901978 159.71797607 -924.30973267 158.85398193 -923.89834595 157.96380615 C-921.46686937 152.82980963 -918.7372174 148.12895848 -915.49282837 143.46405029 C-913.99935254 141.32990865 -913.99935254 141.32990865 -912.29580688 138.14447021 C-905.7340166 126.40374628 -896.42845414 115.85213136 -887.39346313 105.96478271 C-885.26032293 103.6179536 -883.18448615 101.22912436 -881.10830688 98.83197021 C-877.41907488 94.67519197 -873.41978775 91.08927675 -869.17080688 87.51947021 C-867.81422038 86.33473536 -866.46004743 85.14723116 -865.10830688 83.95697021 C-864.45088501 83.3833374 -863.79346313 82.80970459 -863.11611938 82.21868896 C-861.83621486 81.10070008 -860.56005364 79.97840873 -859.28799438 78.85150146 C-858.69244751 78.32943115 -858.09690063 77.80736084 -857.48330688 77.26947021 C-856.9638147 76.81056396 -856.44432251 76.35165771 -855.90908813 75.87884521 C-853.77560118 74.21041047 -851.49901564 72.90162436 -849.17080688 71.51947021 C-847.5990663 70.42849734 -846.03671887 69.32388627 -844.48330688 68.20697021 C-833.45630718 60.44239646 -821.61421541 53.73003367 -809.17080688 48.51947021 C-807.9706897 48.00642334 -806.77057251 47.49337646 -805.53408813 46.96478271 C-789.77637954 40.29297419 -773.94954433 34.59229178 -757.20889282 30.97991943 C-755.15442903 30.51577009 -753.1210255 29.99940028 -751.08486938 29.46087646 C-750.40650024 29.28258301 -749.7281311 29.10428955 -749.02920532 28.92059326 C-747.19757176 28.43472788 -745.3676982 27.94224048 -743.53799438 27.44915771 C-738.52248118 26.2634807 -733.41202744 25.73762094 -728.30557251 25.08636475 C-724.10054166 24.52961806 -719.92863898 23.82420106 -715.75283813 23.08197021 C-715.03571655 22.95516876 -714.31859497 22.82836731 -713.57974243 22.69772339 C-710.65525286 22.17851168 -707.73149594 21.65558097 -704.80923462 21.1239624 C-695.56663344 19.44896824 -686.37707702 18.15560758 -677.02331543 17.28656006 C-670.55250492 16.6797019 -664.11201439 15.91748927 -657.66690063 15.08197021 C-656.68139725 14.95507812 -655.69589386 14.82818604 -654.68052673 14.69744873 C-650.65861826 14.17807474 -646.63717225 13.6554991 -642.61685181 13.1239624 C-628.81338758 11.30531227 -615.04635799 9.98107635 -601.15737915 9.0199585 C-593.96149504 8.51792449 -586.77760485 7.9039813 -579.59268188 7.26556396 C-577.78006615 7.10490952 -577.78006615 7.10490952 -575.93083191 6.94100952 C-572.26068915 6.6144817 -568.59072412 6.28602244 -564.92080688 5.95697021 C-544.00326688 4.08373734 -523.15427829 2.51076032 -502.17080688 1.64447021 C-488.64716811 1.07921301 -475.12642178 0.47861401 -461.60830688 -0.20709229 C-386.30489469 -4.00903036 -310.94280827 -5.59145986 0 0 Z M-524.66690063 73.62493896 C-531.84396301 74.15456055 -539.01789412 74.65481436 -546.20596313 75.00775146 C-546.87420105 75.0407283 -547.54243896 75.07370514 -548.23092651 75.10768127 C-549.20929474 75.15574165 -549.20929474 75.15574165 -550.20742798 75.20477295 C-569.84148329 76.17511139 -589.35786674 78.25350224 -608.90274048 80.31195068 C-610.11707764 80.4397995 -611.33141479 80.56764832 -612.58255005 80.69937134 C-614.99627589 80.9536901 -617.40993209 81.20867073 -619.82351685 81.46432495 C-627.27307904 82.244889 -634.72472685 82.91441714 -642.19033813 83.51947021 C-652.76378744 84.3926065 -663.19538142 85.86157756 -673.67080688 87.51947021 C-676.20513743 87.91378595 -678.73979649 88.3059159 -681.27458191 88.69729614 C-682.92495113 88.95226025 -684.57513133 89.20845109 -686.22511292 89.46591187 C-691.04441814 90.21294718 -695.86626104 90.8757285 -700.70596313 91.48040771 C-709.58450263 92.64320151 -718.33938144 94.34930919 -727.10830688 96.14447021 C-728.38964508 96.40674408 -728.38964508 96.40674408 -729.6968689 96.67431641 C-752.31743477 101.35190385 -776.20884925 107.5616791 -795.56924438 120.75384521 C-798.17080688 122.51947021 -798.17080688 122.51947021 -801.17080688 123.51947021 C-801.17080688 124.17947021 -801.17080688 124.83947021 -801.17080688 125.51947021 C-801.87721313 125.76697021 -802.58361938 126.01447021 -803.31143188 126.26947021 C-806.53105214 127.67695448 -809.09150681 129.43955232 -811.92080688 131.51947021 C-812.88502563 132.22072021 -813.84924438 132.92197021 -814.84268188 133.64447021 C-817.23825004 135.30761386 -817.23825004 135.30761386 -818.17080688 137.51947021 C-818.93393188 137.95259521 -819.69705688 138.38572021 -820.48330688 138.83197021 C-823.49052687 140.72022463 -824.98664992 142.73963408 -827.17080688 145.51947021 C-828.62602232 146.71598069 -830.08185292 147.9117925 -831.54580688 149.09759521 C-845.11524474 160.97085334 -855.51701639 178.4280673 -863.17080688 194.51947021 C-863.8346956 195.81256689 -864.50106572 197.10439502 -865.17080688 198.39447021 C-870.17462008 208.46464428 -874.06238696 218.72702401 -877.17080688 229.51947021 C-877.47937622 230.55756836 -877.78794556 231.5956665 -878.10586548 232.66522217 C-880.68211523 241.43661482 -882.79250328 250.26234117 -884.67080688 259.20697021 C-884.82143585 259.91812988 -884.97206482 260.62928955 -885.1272583 261.36199951 C-887.85523995 274.29971739 -889.92139329 287.2758104 -891.71914673 300.37542725 C-892.29942263 304.41477485 -892.9805141 308.43358398 -893.66421509 312.45648193 C-896.19268244 327.43231986 -897.81531757 342.47778638 -899.41627502 357.57408142 C-899.97067038 362.76452463 -900.5721415 367.94754159 -901.20596313 373.12884521 C-903.60646124 392.85743381 -905.25887247 412.57725777 -906.56529236 432.40705872 C-907.09276256 440.41215736 -907.64844309 448.41512442 -908.20986938 456.41790771 C-908.48242701 460.31502054 -908.75476077 464.21214893 -909.02700806 468.10928345 C-909.20374647 470.63918306 -909.3806619 473.16907032 -909.55776978 475.69894409 C-909.80807648 479.28353569 -910.05612889 482.86827695 -910.30361938 486.45306396 C-910.41282211 488.00898758 -910.41282211 488.00898758 -910.52423096 489.59634399 C-911.7031206 506.76262887 -912.40402838 523.91008878 -912.72549438 541.11322021 C-912.74643032 542.20293625 -912.76736626 543.29265228 -912.78893661 544.41539001 C-913.36373236 575.20639829 -913.32244848 606.00073107 -913.29937625 636.79586983 C-913.29560398 642.41321538 -913.29697134 648.03054328 -913.30117798 653.64788818 C-913.50496926 728.34742743 -913.50496926 728.34742743 -910.29580688 802.95697021 C-910.1607377 805.0272787 -910.02746557 807.09769785 -909.89435005 809.16813278 C-908.71769261 827.44834013 -907.39196402 845.71530473 -905.80752563 863.96478271 C-905.40218089 868.64525695 -905.04003462 873.32246979 -904.75283813 878.01165771 C-903.48373412 898.46222592 -900.79094078 918.73184993 -898.22415161 939.05223083 C-897.2750873 946.59663835 -896.42315446 954.14689374 -895.60830688 961.70697021 C-894.18102364 974.63318727 -891.9415181 987.41687038 -889.72451782 1000.22601318 C-889.13060772 1003.75857368 -888.61091689 1007.29640404 -888.10952759 1010.84295654 C-882.96068316 1046.56431694 -871.40964016 1079.46033083 -853.17080688 1110.51947021 C-852.6410022 1111.43341553 -852.11119751 1112.34736084 -851.56533813 1113.28900146 C-850.49964888 1115.07348407 -849.34832471 1116.80671702 -848.17080688 1118.51947021 C-847.51080688 1118.51947021 -846.85080688 1118.51947021 -846.17080688 1118.51947021 C-845.91815063 1119.0802124 -845.66549438 1119.64095459 -845.40518188 1120.21868896 C-842.97364781 1124.75088381 -839.42951987 1128.56246159 -836.17080688 1132.51947021 C-835.65002563 1133.16657959 -835.12924438 1133.81368896 -834.59268188 1134.48040771 C-830.85862964 1139.01461402 -826.65530908 1142.74227975 -822.17080688 1146.51947021 C-821.12953186 1147.4220668 -820.0892363 1148.32579406 -819.04971313 1149.23040771 C-813.35946069 1154.15680652 -807.75978156 1158.83430916 -801.17080688 1162.51947021 C-800.12279907 1163.13306396 -799.07479126 1163.74665771 -797.99502563 1164.37884521 C-786.13292041 1171.30349138 -773.97111581 1177.49828623 -761.17080688 1182.51947021 C-760.47535767 1182.79404053 -759.77990845 1183.06861084 -759.06338501 1183.35150146 C-713.96776427 1200.72342924 -659.54833455 1204.45968185 -611.65371704 1208.14202881 C-606.10367137 1208.5921618 -600.5659107 1209.16457128 -595.02627563 1209.72650146 C-573.98744671 1211.85283084 -552.99973021 1213.860168 -531.87075806 1214.78143311 C-521.66936792 1215.22830416 -511.48201968 1215.79391112 -501.29190063 1216.45306396 C-499.93491645 1216.54047557 -498.57793199 1216.62788295 -497.22094727 1216.71528625 C-491.83422076 1217.06317136 -486.44764483 1217.41285768 -481.0617981 1217.7741394 C-433.42218295 1220.96565163 -385.75433672 1221.94764555 -338.02528626 1222.55428958 C-331.00664012 1222.64389538 -323.98812372 1222.74195182 -316.96960258 1222.8407917 C-310.09476312 1222.93753344 -303.21987254 1223.03044986 -296.34497309 1223.12281561 C-294.21442193 1223.1515882 -292.08387804 1223.18085559 -289.95333481 1223.21020889 C-258.3919377 1223.64175234 -226.8478114 1223.5439917 -195.2874105 1223.18147516 C-192.69513285 1223.15170983 -190.10285126 1223.12231003 -187.51056862 1223.09298325 C-179.2927419 1222.99980462 -171.07493678 1222.90495341 -162.8571555 1222.80784905 C-154.49015167 1222.70902078 -146.12312583 1222.61389444 -137.75601196 1222.52484131 C-83.07802417 1221.94095416 -28.57744343 1220.64012336 26.00253296 1217.12261963 C32.96938399 1216.67473177 39.93687086 1216.23680397 46.90441513 1215.79985237 C48.58691583 1215.69409599 50.26938342 1215.58781147 51.95181656 1215.48098564 C61.15201212 1214.89723345 70.34164172 1214.39275172 79.55575562 1214.08197021 C94.45129533 1213.54074043 109.27626137 1211.83928339 124.09732056 1210.32244873 C128.02052484 1209.92215286 131.94440199 1209.52857589 135.86825562 1209.13470459 C140.42986721 1208.6766797 144.99139417 1208.21792735 149.55239868 1207.75389099 C156.59297077 1207.03842207 163.63438738 1206.34524782 170.68280029 1205.71063232 C181.79044614 1204.70575062 192.79767426 1203.21227932 203.82919312 1201.58197021 C205.5791235 1201.32693479 207.32912362 1201.07237744 209.07919312 1200.81829834 C211.70176994 1200.43732666 214.32417808 1200.05536386 216.9460907 1199.66984558 C221.36479761 1199.02021824 225.78468784 1198.38326404 230.20883179 1197.77166748 C241.24767689 1196.24132793 252.21191065 1194.51365379 263.14169312 1192.33197021 C263.88257172 1192.18495667 264.62345032 1192.03794312 265.38677979 1191.88647461 C281.71011483 1188.61094588 297.68145057 1184.35383515 312.53549194 1176.67718506 C314.47020385 1175.70066522 316.46190694 1174.83829499 318.46200562 1174.00384521 C322.45068165 1172.24549615 326.02950099 1170.1005076 329.70419312 1167.76947021 C330.40600708 1167.32772461 331.10782104 1166.885979 331.8309021 1166.43084717 C336.39438844 1163.52412428 340.74187399 1160.45548977 344.94247437 1157.03900146 C346.77072277 1155.56656124 348.64650642 1154.22551031 350.57919312 1152.89447021 C356.45380386 1148.72322834 360.97634351 1143.17676551 365.74325562 1137.82415771 C367.39645363 1135.99759062 369.08394043 1134.2552891 370.82919312 1132.51947021 C372.00799197 1131.238866 373.17409308 1129.94649087 374.32919312 1128.64447021 C374.91700562 1127.98704834 375.50481812 1127.32962646 376.11044312 1126.65228271 C377.94283435 1124.37845178 379.36663179 1122.04536354 380.82919312 1119.51947021 C381.92683456 1117.76537008 383.03127354 1116.01550927 384.14169312 1114.26947021 C384.75141968 1113.31040771 385.36114624 1112.35134521 385.98934937 1111.36322021 C387.6464322 1108.80195418 389.35257207 1106.28405049 391.07919312 1103.76947021 C393.50151149 1100.16475369 395.17599634 1096.54464498 396.82919312 1092.51947021 C397.60782926 1091.13704956 398.40072374 1089.76260693 399.20419312 1088.39447021 C402.42899059 1082.70023324 404.59659066 1076.65543061 406.82919312 1070.51947021 C407.32032593 1069.1930249 407.32032593 1069.1930249 407.82138062 1067.83978271 C408.4492553 1066.13258626 409.06807486 1064.42203095 409.67758179 1062.70819092 C410.49392026 1060.44781423 411.33684797 1058.19696007 412.1980896 1055.95330811 C416.37774387 1044.88567022 418.86533688 1033.83102914 420.95419312 1022.20697021 C421.29845781 1020.34482422 421.64319032 1018.48276466 421.9883728 1016.62078857 C424.48176158 1003.03682957 426.58663334 989.42658376 428.38925171 975.7333374 C428.83874581 972.44968573 429.33570292 969.17658081 429.84872437 965.90228271 C431.85500428 953.0804751 433.4446251 940.28894684 434.61459351 927.36346436 C435.3215192 919.57868036 436.11899167 911.81166255 437.02059937 904.04681396 C440.03030615 878.0009941 442.07619782 852.01789011 443.48202515 825.83831787 C443.76582358 820.59712797 444.07579237 815.35791271 444.39781952 810.11894321 C447.67305421 756.76146783 449.18232043 703.49543185 449.08633131 650.04231155 C449.07878962 645.35807345 449.08152481 640.67392007 449.0899353 635.98968506 C449.17666975 586.27799344 448.11784551 536.63002838 444.82919312 487.01947021 C444.64700362 484.20064339 444.46706385 481.38167479 444.28744507 478.56268311 C444.22065347 477.51456813 444.22065347 477.51456813 444.15251255 476.44527912 C444.0636904 475.05141117 443.97489577 473.65754147 443.88612938 472.26366997 C443.7574952 470.25033171 443.62750232 468.23708041 443.4974823 466.22383118 C443.06239773 459.43747524 442.66302559 452.65339001 442.37216187 445.85931396 C441.1024338 416.88863998 437.51928262 388.07839002 434.25482178 359.27713013 C433.84201608 355.63267772 433.43281586 351.98783289 433.02377319 348.34295654 C431.66466577 336.30902316 430.19811075 324.30711671 428.39169312 312.33197021 C428.28558716 311.61999481 428.1794812 310.90801941 428.07015991 310.17446899 C426.3382966 298.55687403 424.46377537 286.97037562 422.35165405 275.41546631 C421.77703978 272.23038477 421.22871954 269.0412715 420.68075562 265.85150146 C418.35205295 252.52265643 415.45120521 239.61664393 411.46469116 226.68597412 C410.85090027 224.59347302 410.33303823 222.49802982 409.83700562 220.37493896 C408.83398373 216.53779711 407.50720587 213.13690336 405.89169312 209.51947021 C404.25724385 205.82582994 402.6451413 202.15373591 401.32919312 198.33197021 C398.29188045 190.04999557 393.44470248 182.68095756 388.24716187 175.61322021 C386.82919312 173.51947021 386.82919312 173.51947021 385.82919312 170.51947021 C385.16919312 170.51947021 384.50919312 170.51947021 383.82919312 170.51947021 C383.56364624 169.94664307 383.29809937 169.37381592 383.02450562 168.78363037 C379.07529328 161.30303495 372.7687681 155.07024827 366.82919312 149.14447021 C366.09297729 148.40986572 365.35676147 147.67526123 364.59823608 146.918396 C357.85656767 140.32419706 350.67454454 134.72825027 342.82919312 129.51947021 C341.36546265 128.54107178 341.36546265 128.54107178 339.87216187 127.54290771 C337.21812848 125.81911493 334.53650212 124.15810461 331.82919312 122.51947021 C330.86497437 121.92392334 329.90075562 121.32837646 328.90731812 120.71478271 C322.10557842 116.60906937 315.22336863 113.39902014 307.82919312 110.51947021 C306.22086118 109.8729788 304.61281359 109.22577978 303.00497437 108.57806396 C276.80006383 98.12288916 248.81358941 92.39308994 220.80966187 89.23040771 C216.02488911 88.68791647 211.26732061 88.01672206 206.50497437 87.30853271 C205.7577713 87.1981517 205.01056824 87.08777069 204.24072266 86.9740448 C198.25812195 86.0892266 198.25812195 86.0892266 195.27828979 85.6343689 C185.36387296 84.12437423 175.47119304 83.09967927 165.47341919 82.31523132 C157.59482365 81.68962603 149.7387958 80.91881443 141.87997437 80.08197021 C140.67754593 79.95512344 139.47511749 79.82827667 138.23625183 79.69758606 C133.32672559 79.17889118 128.4174543 78.65839158 123.50961304 78.1239624 C104.77071237 76.09104579 86.08739203 74.83084348 67.26966381 73.90036297 C57.72558667 73.4235189 48.18789447 72.84354113 38.64950562 72.26556396 C36.85112531 72.15729087 35.05273968 72.04910614 33.25434875 71.94100952 C25.97627447 71.50316505 18.69835157 71.06283481 11.42050171 70.62127686 C6.8650765 70.34500725 2.30953819 70.07066439 -2.24606705 69.79738045 C-3.93524674 69.6956724 -5.62438487 69.59327089 -7.31347275 69.49004936 C-28.10571878 68.21951612 -48.8947417 67.3918418 -69.72158813 66.98431396 C-71.30023997 66.95246726 -71.30023997 66.95246726 -72.91078377 66.91997719 C-81.10144203 66.75523079 -89.29229896 66.60321977 -97.48330688 66.45697021 C-98.7163279 66.43490005 -99.94934891 66.4128299 -101.21973419 66.39009094 C-174.3786878 65.09424502 -247.55958204 64.90299219 -524.66690063 73.62493896 Z " fill="#111219" transform="translate(1120.1708068847656,618.4805297851563)"/>
<path d="M0 0 C3.83195878 2.5848716 7.43411509 5.3739262 10.98046875 8.3359375 C11.53734375 8.77035156 12.09421875 9.20476563 12.66796875 9.65234375 C16.06949149 12.33635779 18.78638772 15.32738579 21.54296875 18.63671875 C24.24008971 21.82489162 27.10909298 24.66564844 30.41796875 27.2109375 C33.13913011 29.46751034 35.24915843 31.89810954 37.5078125 34.6015625 C40.22163147 37.79767821 43.0952361 40.65498931 46.41796875 43.2109375 C49.13913011 45.46751034 51.24915843 47.89810954 53.5078125 50.6015625 C56.22163147 53.79767821 59.0952361 56.65498931 62.41796875 59.2109375 C65.13913011 61.46751034 67.24915843 63.89810954 69.5078125 66.6015625 C72.22163147 69.79767821 75.0952361 72.65498931 78.41796875 75.2109375 C81.13913011 77.46751034 83.24915843 79.89810954 85.5078125 82.6015625 C88.22163147 85.79767821 91.0952361 88.65498931 94.41796875 91.2109375 C97.13913011 93.46751034 99.24915843 95.89810954 101.5078125 98.6015625 C104.22163147 101.79767821 107.0952361 104.65498931 110.41796875 107.2109375 C113.13913011 109.46751034 115.24915843 111.89810954 117.5078125 114.6015625 C120.22163147 117.79767821 123.0952361 120.65498931 126.41796875 123.2109375 C129.13913011 125.46751034 131.24915843 127.89810954 133.5078125 130.6015625 C136.22163147 133.79767821 139.0952361 136.65498931 142.41796875 139.2109375 C145.13913011 141.46751034 147.24915843 143.89810954 149.5078125 146.6015625 C152.24162789 149.82122837 155.14311372 152.68698735 158.48046875 155.2734375 C161.403675 157.68508266 163.58641911 160.4032267 165.98046875 163.3359375 C168.53659511 166.02314726 171.10044985 168.43342214 173.98046875 170.7734375 C177.05950756 173.40344982 179.43125276 176.1984409 181.98046875 179.3359375 C184.53659511 182.02314726 187.10044985 184.43342214 189.98046875 186.7734375 C193.05950756 189.40344982 195.43125276 192.1984409 197.98046875 195.3359375 C200.53659511 198.02314726 203.10044985 200.43342214 205.98046875 202.7734375 C209.05950756 205.40344982 211.43125276 208.1984409 213.98046875 211.3359375 C216.53659511 214.02314726 219.10044985 216.43342214 221.98046875 218.7734375 C225.05950756 221.40344982 227.43125276 224.1984409 229.98046875 227.3359375 C232.35999995 229.83444526 234.68305143 232.10715495 237.41796875 234.2109375 C240.13913011 236.46751034 242.24915843 238.89810954 244.5078125 241.6015625 C247.95493543 245.6613041 251.77113269 249.0887354 255.98046875 252.3359375 C260.51590371 250.57729945 264.06700625 248.62812492 268 245.7109375 C281.55859373 236.29747598 297.84922092 229.78344871 312.98046875 223.3359375 C314.16125 222.81515625 315.34203125 222.294375 316.55859375 221.7578125 C319.7374529 220.43691669 322.86892687 219.37267927 326.16796875 218.3984375 C329.33342239 217.45977281 332.48416539 216.50813098 335.60375977 215.42578125 C343.16093983 212.80827329 350.72652849 210.88494 358.54296875 209.2109375 C360.25516602 208.83388672 360.25516602 208.83388672 362.00195312 208.44921875 C406.0920236 198.83048264 459.0182709 197.12116527 502.47363281 210.62426758 C504.91210313 211.31652907 507.31483055 211.81027197 509.80859375 212.2578125 C515.98641424 213.42971756 521.81195098 215.49457775 527.73046875 217.5859375 C528.87918457 217.98852783 530.02790039 218.39111816 531.21142578 218.8059082 C543.57153559 223.18348355 555.30605117 228.36138262 566.98046875 234.3359375 C568.2717583 234.96171628 569.5633869 235.58679627 570.85546875 236.2109375 C578.47859779 240.03049272 586.25374453 244.18273959 593.10546875 249.2734375 C595.6936804 251.13019803 596.91525157 251.97145748 599.98046875 252.3359375 C602.1942315 250.73449211 604.03485513 249.21602527 605.98046875 247.3359375 C606.82609375 246.5315625 607.67171875 245.7271875 608.54296875 244.8984375 C611.05278819 242.32662411 611.05278819 242.32662411 613.41796875 239.3359375 C616.04798107 236.25689869 618.84297215 233.88515349 621.98046875 231.3359375 C624.66767851 228.77981114 627.07795339 226.2159564 629.41796875 223.3359375 C632.04798107 220.25689869 634.84297215 217.88515349 637.98046875 215.3359375 C640.66767851 212.77981114 643.07795339 210.2159564 645.41796875 207.3359375 C648.04798107 204.25689869 650.84297215 201.88515349 653.98046875 199.3359375 C656.66767851 196.77981114 659.07795339 194.2159564 661.41796875 191.3359375 C664.04798107 188.25689869 666.84297215 185.88515349 669.98046875 183.3359375 C672.66767851 180.77981114 675.07795339 178.2159564 677.41796875 175.3359375 C680.04798107 172.25689869 682.84297215 169.88515349 685.98046875 167.3359375 C688.66767851 164.77981114 691.07795339 162.2159564 693.41796875 159.3359375 C696.04798107 156.25689869 698.84297215 153.88515349 701.98046875 151.3359375 C704.66767851 148.77981114 707.07795339 146.2159564 709.41796875 143.3359375 C712.04798107 140.25689869 714.84297215 137.88515349 717.98046875 135.3359375 C720.47897651 132.9564063 722.7516862 130.63335482 724.85546875 127.8984375 C727.11204159 125.17727614 729.54264079 123.06724782 732.24609375 120.80859375 C735.44220946 118.09477478 738.29952056 115.22117015 740.85546875 111.8984375 C743.11204159 109.17727614 745.54264079 107.06724782 748.24609375 104.80859375 C751.44220946 102.09477478 754.29952056 99.22117015 756.85546875 95.8984375 C759.11204159 93.17727614 761.54264079 91.06724782 764.24609375 88.80859375 C767.44220946 86.09477478 770.29952056 83.22117015 772.85546875 79.8984375 C775.11204159 77.17727614 777.54264079 75.06724782 780.24609375 72.80859375 C783.44220946 70.09477478 786.29952056 67.22117015 788.85546875 63.8984375 C791.11204159 61.17727614 793.54264079 59.06724782 796.24609375 56.80859375 C799.46575962 54.07477836 802.3315186 51.17329253 804.91796875 47.8359375 C807.32961391 44.91273125 810.04775795 42.72998714 812.98046875 40.3359375 C815.66767851 37.77981114 818.07795339 35.2159564 820.41796875 32.3359375 C823.04798107 29.25689869 825.84297215 26.88515349 828.98046875 24.3359375 C831.62555846 21.81987655 834.00393774 19.30675984 836.29296875 16.4609375 C843.09718915 8.19866987 853.94147401 -1.64482527 864.90527344 -2.88110352 C873.47014361 -3.37460704 881.62393196 -3.58772885 888.98046875 1.3359375 C889.7590625 1.85671875 890.53765625 2.3775 891.33984375 2.9140625 C899.00885307 8.47785358 904.23284481 14.86408255 905.98046875 24.3359375 C907.07398028 35.75171721 906.13539128 45.42459983 899.04296875 54.93359375 C895.6743894 58.85722311 892.10671968 62.21336923 887.98046875 65.3359375 C885.11880793 68.05084648 882.50600663 70.87554305 879.98046875 73.8984375 C877.54851729 76.77821633 874.97492267 79.03251141 871.98046875 81.3359375 C869.11880793 84.05084648 866.50600663 86.87554305 863.98046875 89.8984375 C861.54851729 92.77821633 858.97492267 95.03251141 855.98046875 97.3359375 C853.11880793 100.05084648 850.50600663 102.87554305 847.98046875 105.8984375 C845.54851729 108.77821633 842.97492267 111.03251141 839.98046875 113.3359375 C837.11880793 116.05084648 834.50600663 118.87554305 831.98046875 121.8984375 C829.54851729 124.77821633 826.97492267 127.03251141 823.98046875 129.3359375 C821.11880793 132.05084648 818.50600663 134.87554305 815.98046875 137.8984375 C813.54851729 140.77821633 810.97492267 143.03251141 807.98046875 145.3359375 C805.11880793 148.05084648 802.50600663 150.87554305 799.98046875 153.8984375 C797.54851729 156.77821633 794.97492267 159.03251141 791.98046875 161.3359375 C789.11880793 164.05084648 786.50600663 166.87554305 783.98046875 169.8984375 C781.54851729 172.77821633 778.97492267 175.03251141 775.98046875 177.3359375 C773.11880793 180.05084648 770.50600663 182.87554305 767.98046875 185.8984375 C765.54851729 188.77821633 762.97492267 191.03251141 759.98046875 193.3359375 C757.11880793 196.05084648 754.50600663 198.87554305 751.98046875 201.8984375 C749.54851729 204.77821633 746.97492267 207.03251141 743.98046875 209.3359375 C741.11880793 212.05084648 738.50600663 214.87554305 735.98046875 217.8984375 C733.54851729 220.77821633 730.97492267 223.03251141 727.98046875 225.3359375 C725.29419668 227.88789596 722.88081505 230.4585882 720.54296875 233.3359375 C717.91295643 236.41497631 715.11796535 238.78672151 711.98046875 241.3359375 C709.29325899 243.89206386 706.88298411 246.4559186 704.54296875 249.3359375 C701.91295643 252.41497631 699.11796535 254.78672151 695.98046875 257.3359375 C693.29325899 259.89206386 690.88298411 262.4559186 688.54296875 265.3359375 C685.91295643 268.41497631 683.11796535 270.78672151 679.98046875 273.3359375 C677.29325899 275.89206386 674.88298411 278.4559186 672.54296875 281.3359375 C669.91295643 284.41497631 667.11796535 286.78672151 663.98046875 289.3359375 C660.3105581 292.74371168 657.62382188 296.12615289 654.98046875 300.3359375 C655.41617188 300.820625 655.851875 301.3053125 656.30078125 301.8046875 C659.90898237 305.86586625 663.31865285 309.99195319 666.5234375 314.37890625 C668.28523962 316.74529462 670.13708701 319.03256851 671.98046875 321.3359375 C678.42874439 329.73041997 684.60051715 338.21341088 689.98046875 347.3359375 C690.35945313 347.8825 690.7384375 348.4290625 691.12890625 348.9921875 C697.30362315 358.123284 700.5147224 368.30848936 698.98046875 379.3359375 C696.53480886 390.02394154 692.17418732 397.69525768 682.8671875 403.69921875 C680.93524859 404.73083662 679.02935914 405.5665409 676.98046875 406.3359375 C675.90796875 406.7484375 674.83546875 407.1609375 673.73046875 407.5859375 C665.11955918 409.30811941 658.10291305 408.81114221 649.98046875 405.5859375 C649.02817383 405.20791992 649.02817383 405.20791992 648.05664062 404.82226562 C644.31602845 403.21800308 641.55708599 401.50517671 638.98046875 398.3359375 C638.98046875 397.6759375 638.98046875 397.0159375 638.98046875 396.3359375 C637.99046875 396.0059375 637.00046875 395.6759375 635.98046875 395.3359375 C634.46837712 393.2109139 633.11573492 391.13494088 631.79296875 388.8984375 C631.24092773 388.0002832 631.24092773 388.0002832 630.67773438 387.08398438 C627.98046875 382.61523075 627.98046875 382.61523075 627.98046875 380.3359375 C627.32046875 380.3359375 626.66046875 380.3359375 625.98046875 380.3359375 C623.9387739 377.43044868 622.98046875 375.93451704 622.98046875 372.3359375 C621.99046875 372.0059375 621.00046875 371.6759375 619.98046875 371.3359375 C618.1484375 369.078125 618.1484375 369.078125 616.16796875 366.2109375 C612.28916194 360.72661725 608.29293277 355.64840152 603.54296875 350.8984375 C600.82125057 348.17671932 598.32405482 345.32277404 595.82421875 342.3984375 C586.85272768 332.36253224 576.13538403 323.80327748 564.98046875 316.3359375 C563.29191379 315.12907884 561.60442354 313.92072919 559.91796875 312.7109375 C555.43540981 309.57033586 550.80120467 306.91489452 545.98046875 304.3359375 C544.90796875 303.7171875 543.83546875 303.0984375 542.73046875 302.4609375 C541.48178728 301.75028238 540.2315555 301.0423496 538.98046875 300.3359375 C538.03429688 299.79839844 537.088125 299.26085937 536.11328125 298.70703125 C528.60122467 294.5366689 521.06250434 291.22759132 512.98046875 288.3359375 C512.16070557 288.0354248 511.34094238 287.73491211 510.49633789 287.42529297 C463.21341743 270.09586298 408.29648897 265.98641304 360.02734375 282.64404297 C357.01959786 283.6607357 353.96800963 284.51834393 350.91796875 285.3984375 C345.0166332 287.21656399 339.54564286 289.68329412 333.98046875 292.3359375 C332.75458889 292.86446055 331.52581504 293.38637493 330.29296875 293.8984375 C327.13268192 295.26988273 324.06921688 296.75148339 321 298.3125 C319.71182995 298.96530571 318.41800361 299.60714711 317.1171875 300.234375 C311.73663801 302.84110084 306.63941658 305.86041957 301.51953125 308.9453125 C298.98046875 310.3359375 298.98046875 310.3359375 296.98046875 310.3359375 C296.65046875 311.3259375 296.32046875 312.3159375 295.98046875 313.3359375 C293.86328125 314.84375 293.86328125 314.84375 291.10546875 316.4609375 C277.56435422 324.81943474 265.1663118 336.11292584 254.98046875 348.3359375 C253.87251953 349.15384766 253.87251953 349.15384766 252.7421875 349.98828125 C248.97554727 353.19019183 246.23692557 356.94760077 243.29296875 360.8984375 C242.71224609 361.66607422 242.13152344 362.43371094 241.53320312 363.22460938 C239.27274019 366.22200936 237.0635566 369.21130572 234.98046875 372.3359375 C234.32046875 372.3359375 233.66046875 372.3359375 232.98046875 372.3359375 C232.93921875 372.9959375 232.89796875 373.6559375 232.85546875 374.3359375 C231.80061564 377.95257672 230.05709883 380.07627349 227.73828125 383 C225.05371409 386.56749146 222.80071101 390.39067105 220.49609375 394.2109375 C219.9959375 394.9121875 219.49578125 395.6134375 218.98046875 396.3359375 C218.32046875 396.3359375 217.66046875 396.3359375 216.98046875 396.3359375 C216.67109375 397.2021875 216.67109375 397.2021875 216.35546875 398.0859375 C212.62459995 404.19099554 204.57892749 406.64535199 197.98046875 408.3359375 C188.43248313 409.59723018 178.93767646 408.01169016 171.109375 402.20703125 C162.66437859 394.76709972 158.19366063 387.69593243 156.55078125 376.375 C156.0500656 365.38870954 160.11462095 355.08527031 166.55078125 346.30078125 C168.0388333 344.32004028 168.0388333 344.32004028 169.359375 342.01171875 C171.33787453 338.74600265 173.55284865 335.67405791 175.79296875 332.5859375 C178.7176846 328.53482156 181.58271406 324.47292068 184.29296875 320.2734375 C186.53695797 316.86357679 189.01306477 314.15859007 191.98046875 311.3359375 C193.22406813 309.99501295 194.45233698 308.63976742 195.66796875 307.2734375 C196.24933594 306.62246094 196.83070313 305.97148437 197.4296875 305.30078125 C198.93956954 303.3877569 199.97926567 301.55042115 200.98046875 299.3359375 C196.97964871 294.42064431 192.92003771 289.91183728 187.98046875 285.8984375 C184.90142994 283.26842518 182.52968474 280.4734341 179.98046875 277.3359375 C177.42434239 274.64872774 174.86048765 272.23845286 171.98046875 269.8984375 C168.90142994 267.26842518 166.52968474 264.4734341 163.98046875 261.3359375 C161.42434239 258.64872774 158.86048765 256.23845286 155.98046875 253.8984375 C152.90142994 251.26842518 150.52968474 248.4734341 147.98046875 245.3359375 C145.42434239 242.64872774 142.86048765 240.23845286 139.98046875 237.8984375 C136.90142994 235.26842518 134.52968474 232.4734341 131.98046875 229.3359375 C129.40433262 226.62769182 126.8153144 224.20111762 123.91796875 221.8359375 C121.16801764 219.49555358 119.18217905 217.17685402 116.98046875 214.3359375 C114.26555977 211.47427668 111.4408632 208.86147538 108.41796875 206.3359375 C105.53818992 203.90398604 103.28389484 201.33039142 100.98046875 198.3359375 C98.26555977 195.47427668 95.4408632 192.86147538 92.41796875 190.3359375 C89.53818992 187.90398604 87.28389484 185.33039142 84.98046875 182.3359375 C82.26555977 179.47427668 79.4408632 176.86147538 76.41796875 174.3359375 C73.53818992 171.90398604 71.28389484 169.33039142 68.98046875 166.3359375 C66.26555977 163.47427668 63.4408632 160.86147538 60.41796875 158.3359375 C57.53818992 155.90398604 55.28389484 153.33039142 52.98046875 150.3359375 C50.26555977 147.47427668 47.4408632 144.86147538 44.41796875 142.3359375 C41.53818992 139.90398604 39.28389484 137.33039142 36.98046875 134.3359375 C34.26555977 131.47427668 31.4408632 128.86147538 28.41796875 126.3359375 C25.53818992 123.90398604 23.28389484 121.33039142 20.98046875 118.3359375 C18.26555977 115.47427668 15.4408632 112.86147538 12.41796875 110.3359375 C9.53818992 107.90398604 7.28389484 105.33039142 4.98046875 102.3359375 C2.26555977 99.47427668 -0.5591368 96.86147538 -3.58203125 94.3359375 C-6.46181008 91.90398604 -8.71610516 89.33039142 -11.01953125 86.3359375 C-13.73444023 83.47427668 -16.5591368 80.86147538 -19.58203125 78.3359375 C-22.46181008 75.90398604 -24.71610516 73.33039142 -27.01953125 70.3359375 C-29.67521804 67.53670007 -32.42680041 64.97994849 -35.39453125 62.5234375 C-43.98455998 55.14986164 -49.2687192 48.01434522 -50.3984375 36.4609375 C-50.85764789 26.22152278 -49.43082969 17.17218628 -42.83203125 9.0234375 C-32.21242804 -2.07473152 -14.33325754 -7.81814048 0 0 Z " fill="#111219" transform="translate(596.01953125,2.6640625)"/>
<path d="M0 0 C1.70736328 0.02513672 1.70736328 0.02513672 3.44921875 0.05078125 C30.45090683 1.0383038 53.57915445 15.03702197 72 34 C76 38.59615385 76 38.59615385 76 41 C76.66 41 77.32 41 78 41 C80.94750336 45.1512299 83.45384841 49.59369326 86 54 C86.48210937 54.82242188 86.96421875 55.64484375 87.4609375 56.4921875 C91.63806269 64.18129056 93.80403647 72.57930813 96 81 C96.25007813 81.92425781 96.50015625 82.84851562 96.7578125 83.80078125 C101.49171622 104.7032998 98.00270746 132.18006555 86.875 150.625 C86.39804688 151.33914063 85.92109375 152.05328125 85.4296875 152.7890625 C83.89455001 155.0646676 83.89455001 155.0646676 82.56640625 157.953125 C72.00264863 178.50108246 49.31331298 194.43991732 27.89257812 201.71582031 C8.81047993 207.59209558 -13.75658819 208.84129846 -33 203 C-34.05316406 202.73316406 -35.10632812 202.46632813 -36.19140625 202.19140625 C-58.99673112 196.0166793 -81.98833402 178.86278281 -93.96289062 158.35058594 C-108.32829895 132.65490813 -113.5372835 103.85141215 -105.64160156 75.15917969 C-101.986675 62.85926701 -96.10255417 51.65383126 -89 41 C-88.34 41 -87.68 41 -87 41 C-86.773125 40.28457031 -86.54625 39.56914063 -86.3125 38.83203125 C-81.34997386 28.12419955 -67.2592821 18.38240364 -57.10546875 13.10546875 C-54.95331417 12.02049237 -54.95331417 12.02049237 -52.8671875 10.58984375 C-48.74354877 8.30330293 -44.39211961 6.89091958 -39.9375 5.375 C-39.03966797 5.06304688 -38.14183594 4.75109375 -37.21679688 4.4296875 C-25.04736717 0.23146045 -12.83754736 -0.36879411 0 0 Z M-30.9765625 81.3671875 C-37.77675217 90.57402866 -38.7969979 98.70062658 -38 110 C-36.65869385 118.08441798 -32.05936488 124.69602998 -25.75390625 129.828125 C-16.60430052 136.18501802 -7.82352512 136.87817648 3 136 C6.13177225 135.15201244 8.38924908 133.89604309 11 132 C12.00933594 131.36384766 12.00933594 131.36384766 13.0390625 130.71484375 C20.18854536 125.90835621 24.77374935 119.32290954 27 111 C27.31463656 107.34966979 27.31463656 107.34966979 27.25 103.5625 C27.25515625 102.30566406 27.2603125 101.04882812 27.265625 99.75390625 C26.60878062 90.4711497 22.61820658 83.65717878 16.1484375 77.1328125 C9.48568363 71.62164572 0.90389243 69.3500565 -7.68359375 69.71875 C-17.328777 70.88983464 -24.6856949 73.83306544 -30.9765625 81.3671875 Z " fill="#111219" transform="translate(1814,955)"/>
<path d="M0 0 C1.155 0.45375 2.31 0.9075 3.5 1.375 C25.78490999 11.72156535 43.66406763 32.78375491 52.3125 55.5625 C59.6912002 77.9016841 61.61574618 99.2439759 55 122 C54.80744629 122.67675781 54.61489258 123.35351562 54.41650391 124.05078125 C51.9316442 132.60351474 48.60922059 140.36833968 44 148 C43.48695313 148.92554688 42.97390625 149.85109375 42.4453125 150.8046875 C41.96835938 151.52914062 41.49140625 152.25359375 41 153 C40.34 153 39.68 153 39 153 C38.73832031 153.57878906 38.47664063 154.15757812 38.20703125 154.75390625 C31.03000053 168.10922231 13.41149784 182.75338514 -0.91015625 187.29296875 C-3.51498836 188.17422971 -5.9393833 189.35093411 -8.4375 190.5 C-30.87054385 199.73549442 -59.9919155 198.87298314 -82.3671875 189.94140625 C-98.46706228 183.08683102 -112.9341179 173.77221196 -124 160 C-124.804375 159.05125 -125.60875 158.1025 -126.4375 157.125 C-128 155 -128 155 -128 153 C-128.66 153 -129.32 153 -130 153 C-135.93919883 142.94917867 -141.23234496 133.43865938 -144 122 C-144.28359375 120.92621094 -144.5671875 119.85242188 -144.859375 118.74609375 C-151.86435035 91.81658946 -147.64440652 63.856704 -133.7578125 39.71875 C-128.12936986 31.01342539 -121.6485801 23.01506134 -114 16 C-112.99646484 15.06027344 -112.99646484 15.06027344 -111.97265625 14.1015625 C-107.92342848 10.41762015 -103.80108649 7.63323778 -99 5 C-98.40888428 4.6690332 -97.81776855 4.33806641 -97.20874023 3.99707031 C-68.62320171 -11.95365237 -29.44077607 -17.59388844 0 0 Z M-68 69 C-68.63292383 71.11280345 -68.63292383 71.11280345 -69 73 C-69.99 73.33 -70.98 73.66 -72 74 C-73.20175547 75.72138304 -73.20175547 75.72138304 -74.125 77.8125 C-74.45757813 78.49957031 -74.79015625 79.18664062 -75.1328125 79.89453125 C-78.42992567 87.89968439 -78.11488793 97.65681431 -75.5 105.8125 C-71.8116665 114.56906798 -65.98658601 120.15467286 -57.39453125 124.02734375 C-56.60433594 124.34832031 -55.81414062 124.66929687 -55 125 C-53.75669922 125.54720703 -53.75669922 125.54720703 -52.48828125 126.10546875 C-45.40002646 128.65367965 -38.38988384 126.99454412 -31.60546875 124.2578125 C-23.09057863 120.14717589 -16.65405284 113.7222534 -13.125 104.875 C-10.74456262 96.7617933 -10.72923556 86.84983466 -14 79 C-15.8646306 75.6167447 -15.8646306 75.6167447 -18 73 C-18.66 73 -19.32 73 -20 73 C-20.061875 72.4225 -20.12375 71.845 -20.1875 71.25 C-21.35314999 68.02204617 -23.21364523 66.97129861 -26 65 C-40.47033227 58.35902625 -55.43579247 57.33985906 -68 69 Z " fill="#111219" transform="translate(1853,692)"/>
<path d="M0 0 C1.13010498 -0.00233643 2.26020996 -0.00467285 3.42456055 -0.00708008 C9.63760093 0.01835415 15.84982033 0.06014458 22.0625 0.1328125 C23.02849121 0.14006348 23.99448242 0.14731445 24.98974609 0.15478516 C53.20719391 0.46189259 84.79676261 4.82873256 111.15625 15.02734375 C113.71990056 16.00249578 116.22548315 16.75202226 118.875 17.4453125 C130.45146826 20.83214702 141.60046803 26.71706772 151.0625 34.1328125 C151.89007812 34.74769531 152.71765625 35.36257813 153.5703125 35.99609375 C163.48545804 43.56131948 170.78346805 52.40359286 177.0625 63.1328125 C177.55234375 63.9371875 178.0421875 64.7415625 178.546875 65.5703125 C191.93052919 88.59595411 198.82367221 116.32194885 201.76367188 142.60205078 C202.07318607 145.2233123 202.44297164 147.83023721 202.828125 150.44140625 C204.45680451 161.66031516 205.53479337 172.8893747 206.3125 184.1953125 C206.40474854 185.46681152 206.49699707 186.73831055 206.59204102 188.04833984 C207.43814195 201.46870816 207.12929929 212.99921392 201.0625 225.1328125 C200.4025 225.1328125 199.7425 225.1328125 199.0625 225.1328125 C198.69125 226.2775 198.69125 226.2775 198.3125 227.4453125 C196.94119328 230.39362195 195.8273921 231.49115782 193.0625 233.1328125 C192.4025 233.1328125 191.7425 233.1328125 191.0625 233.1328125 C191.0625 233.7928125 191.0625 234.4528125 191.0625 235.1328125 C181.33512455 240.2048146 171.99719405 242.04956046 161.16796875 239.43359375 C152.11148716 236.13653363 145.00589855 230.39043291 140.0625 222.1328125 C136.74469793 214.84709112 135.42969924 208.09935636 135.15625 200.1484375 C135.10480835 199.13094421 135.0533667 198.11345093 135.00036621 197.06512451 C134.83819116 193.83821104 134.69787521 190.61095328 134.5625 187.3828125 C132.95457839 136.78472256 132.95457839 136.78472256 111.3671875 92.75 C92.09548715 79.22714585 66.66693316 75.56392091 43.80126953 73.40478516 C41.36825709 73.16317561 38.95041215 72.8755674 36.52734375 72.55078125 C27.47111963 71.33966944 18.4779617 70.78929165 9.34130859 70.56201172 C-3.53229662 70.1650283 -15.37846309 68.2275849 -25.078125 59.1875 C-30.09258751 53.64630824 -33.6714647 47.71481862 -33.9375 40.1328125 C-33.97488281 39.30007813 -34.01226563 38.46734375 -34.05078125 37.609375 C-34.35241628 26.27424827 -32.88814392 18.5341002 -24.9375 10.1328125 C-17.5465712 2.80587443 -10.43589742 0.01175214 0 0 Z " fill="#111219" transform="translate(1227.9375,818.8671875)"/>
<path d="M0 0 C9.73364464 9.53848385 12.11774517 20.47273315 12.265625 33.71875 C12.2758717 36.15043173 12.27323941 38.58151254 12.26074219 41.01318359 C12.25002283 43.49471471 12.26068414 45.9755221 12.2734375 48.45703125 C12.28682513 62.79096234 11.38562143 75.14230487 1 86 C-9.78433878 94.9977118 -19.39251834 95.84740528 -33.30078125 94.83203125 C-41.40111066 93.40650744 -48.83703962 87.15546441 -53.5 80.625 C-58.44191983 73.06145197 -59.4576293 64.31218773 -59.3984375 55.49609375 C-59.40130768 54.53276627 -59.40417786 53.56943878 -59.40713501 52.57691956 C-59.4091619 50.55591234 -59.40372917 48.53488488 -59.39111328 46.51391602 C-59.37502236 43.44176948 -59.39101846 40.37093477 -59.41015625 37.29882812 C-59.40817392 35.3229138 -59.40433045 33.34700028 -59.3984375 31.37109375 C-59.40451019 30.46459579 -59.41058289 29.55809784 -59.4168396 28.62413025 C-59.30297221 18.17264405 -55.73679609 7.65207548 -48.1484375 0.17578125 C-33.24152262 -11.61315342 -14.99213789 -11.66055169 0 0 Z " fill="#111219" transform="translate(1423,1134)"/>
</svg>
