<?xml version="1.0" standalone="no"?>
<!DOCTYPE svg PUBLIC "-//W3C//DTD SVG 20010904//EN"
 "http://www.w3.org/TR/2001/REC-SVG-20010904/DTD/svg10.dtd">
<svg version="1.0" xmlns="http://www.w3.org/2000/svg"
 width="512.000000pt" height="512.000000pt" viewBox="0 0 512.000000 512.000000"
 preserveAspectRatio="xMidYMid meet">

<g transform="translate(0.000000,512.000000) scale(0.100000,-0.100000)"
fill="#000000" stroke="none">
<path d="M2095 5048 c-511 -57 -1000 -293 -1365 -658 -544 -545 -777 -1317
-624 -2078 53 -268 183 -580 338 -810 313 -468 791 -809 1327 -946 218 -56
335 -70 574 -70 343 0 510 34 562 113 43 64 23 168 -39 212 -42 30 -90 33
-208 14 -631 -100 -1283 118 -1725 576 -243 252 -412 554 -494 884 -151 603
-15 1235 369 1714 492 614 1281 873 2049 674 393 -101 798 -369 1042 -688 337
-439 479 -990 394 -1525 -10 -57 -15 -121 -12 -142 10 -76 74 -128 160 -128
140 0 191 153 191 580 1 243 -13 358 -69 577 -100 390 -293 729 -584 1027
-372 380 -863 618 -1393 675 -114 13 -379 12 -493 -1z"/>
<path d="M1837 3820 c-107 -27 -210 -111 -255 -208 l-27 -57 0 -780 0 -780 27
-57 c79 -168 267 -255 443 -203 44 12 210 111 635 377 316 198 592 376 613
396 58 56 101 151 105 235 3 39 -1 94 -7 124 -17 75 -81 165 -150 212 -135 92
-1111 697 -1158 718 -59 27 -166 38 -226 23z m633 -644 c289 -181 540 -340
558 -353 27 -20 33 -31 30 -55 -3 -28 -41 -53 -560 -379 -320 -200 -567 -349
-581 -349 -12 0 -28 5 -35 12 -9 9 -12 183 -12 719 0 646 1 709 17 724 9 9 26
15 37 13 12 -3 257 -152 546 -332z"/>
<path d="M3976 2058 c-22 -13 -49 -39 -60 -58 -20 -33 -21 -53 -24 -402 l-3
-367 -367 -3 c-349 -3 -369 -4 -402 -24 -52 -30 -82 -88 -77 -147 5 -54 27
-91 77 -125 33 -22 36 -22 401 -22 l369 0 0 -352 c0 -208 4 -368 10 -390 14
-49 76 -104 129 -113 33 -5 51 -2 88 17 91 45 87 28 93 456 l5 377 375 5 c273
4 381 8 397 17 57 33 91 117 74 181 -13 46 -65 99 -112 112 -19 6 -185 10
-386 10 l-353 0 0 369 c0 365 0 368 -22 401 -53 77 -139 100 -212 58z"/>
</g>
</svg>
