<?xml version="1.0" standalone="no"?>
<!DOCTYPE svg PUBLIC "-//W3C//DTD SVG 20010904//EN"
 "http://www.w3.org/TR/2001/REC-SVG-20010904/DTD/svg10.dtd">
<svg version="1.0" xmlns="http://www.w3.org/2000/svg"
 width="512.000000pt" height="512.000000pt" viewBox="0 0 512.000000 512.000000"
 preserveAspectRatio="xMidYMid meet">

<g transform="translate(0.000000,512.000000) scale(0.100000,-0.100000)"
fill="#000000" stroke="none">
<path d="M3855 5106 c-37 -17 -80 -62 -94 -99 -29 -75 6 -166 79 -204 l43 -23
542 0 542 0 43 23 c75 40 109 133 76 210 -16 39 -61 82 -99 96 -45 17 -1093
14 -1132 -3z"/>
<path d="M595 5098 c-33 -11 -547 -516 -571 -560 -20 -38 -18 -116 5 -158 36
-69 119 -103 194 -80 32 9 69 39 154 123 l113 111 2 -2210 3 -2209 23 -37 c33
-53 98 -82 165 -74 58 6 91 27 125 76 l22 33 0 2208 c0 1215 3 2209 7 2209 4
0 57 -49 118 -109 89 -88 117 -111 148 -116 115 -22 207 50 207 162 0 30 -6
66 -14 81 -26 48 -518 530 -558 547 -42 17 -99 18 -143 3z"/>
<path d="M3200 3901 c-42 -22 -77 -70 -86 -118 -15 -78 43 -170 121 -192 54
-15 1684 -15 1737 -1 143 40 172 224 49 307 l-34 23 -876 0 c-834 0 -878 -1
-911 -19z"/>
<path d="M2585 2716 c-37 -17 -80 -62 -94 -99 -29 -75 6 -166 79 -204 l43 -23
1177 0 1177 0 43 23 c51 27 90 90 90 147 0 57 -39 120 -90 147 l-43 23 -1176
0 c-960 -1 -1182 -3 -1206 -14z"/>
<path d="M1976 1525 c-80 -28 -123 -97 -113 -182 8 -74 61 -129 138 -144 57
-11 2901 -11 2958 0 159 31 191 241 48 319 -30 16 -124 17 -1512 19 -1239 2
-1486 0 -1519 -12z"/>
<path d="M1313 315 c-44 -27 -83 -91 -83 -136 0 -71 49 -144 113 -168 20 -8
583 -11 1830 -11 1736 0 1804 1 1843 19 57 26 87 72 92 141 5 68 -12 107 -65
147 l-36 28 -1826 2 -1826 3 -42 -25z"/>
</g>
</svg>
