<?xml version="1.0" standalone="no"?>
<!DOCTYPE svg PUBLIC "-//W3C//DTD SVG 20010904//EN"
 "http://www.w3.org/TR/2001/REC-SVG-20010904/DTD/svg10.dtd">
<svg version="1.0" xmlns="http://www.w3.org/2000/svg"
 width="512.000000pt" height="512.000000pt" viewBox="0 0 512.000000 512.000000"
 preserveAspectRatio="xMidYMid meet">

<g transform="translate(0.000000,512.000000) scale(0.100000,-0.100000)"
fill="#000000" stroke="none">
<path d="M595 5106 c-39 -17 -70 -52 -90 -98 -13 -33 -15 -274 -15 -2230 l0
-2192 -112 111 c-90 88 -122 113 -156 122 -131 36 -249 -97 -202 -226 14 -37
536 -561 577 -579 44 -19 90 -17 138 5 26 12 133 112 302 282 224 226 263 270
272 306 29 109 -50 213 -162 213 -26 0 -60 -6 -75 -14 -15 -8 -72 -60 -127
-115 -55 -56 -103 -101 -107 -101 -4 0 -9 996 -10 2213 l-3 2212 -24 34 c-43
61 -138 87 -206 57z"/>
<path d="M1349 5110 c-73 -22 -119 -87 -119 -167 0 -58 26 -105 79 -140 l34
-23 1814 0 c1785 0 1814 0 1852 20 123 62 115 243 -13 301 -39 18 -109 19
-1831 18 -984 0 -1802 -4 -1816 -9z"/>
<path d="M1942 3903 c-67 -33 -103 -109 -88 -188 9 -48 68 -112 114 -125 24
-6 545 -10 1512 -10 1410 0 1477 1 1515 19 48 22 69 44 91 96 30 73 -2 162
-74 203 l-40 22 -1498 0 c-1367 0 -1502 -2 -1532 -17z"/>
<path d="M2572 2709 c-118 -59 -122 -231 -7 -296 l40 -23 1178 0 c1295 0 1215
-4 1274 63 63 72 49 181 -33 243 l-37 29 -1186 3 -1186 2 -43 -21z"/>
<path d="M3237 1526 c-76 -28 -117 -86 -117 -164 0 -87 67 -155 163 -167 29
-3 421 -5 873 -3 l820 3 43 28 c46 31 81 91 81 142 0 51 -35 111 -81 142 l-43
28 -850 2 c-704 2 -858 0 -889 -11z"/>
<path d="M3833 315 c-44 -27 -83 -91 -83 -136 0 -75 53 -150 121 -169 20 -6
248 -10 568 -10 522 0 536 0 578 21 122 59 124 237 3 299 -38 19 -61 20 -592
20 l-553 0 -42 -25z"/>
</g>
</svg>
