<?xml version="1.0" standalone="no"?>
<!DOCTYPE svg PUBLIC "-//W3C//DTD SVG 20010904//EN"
 "http://www.w3.org/TR/2001/REC-SVG-20010904/DTD/svg10.dtd">
<svg version="1.0" xmlns="http://www.w3.org/2000/svg"
 width="512.000000pt" height="512.000000pt" viewBox="0 0 512.000000 512.000000"
 preserveAspectRatio="xMidYMid meet">

<g transform="translate(0.000000,512.000000) scale(0.100000,-0.100000)"
fill="#000000" stroke="none">
<path d="M716 4504 c-182 -44 -337 -201 -381 -385 -22 -97 -22 -3021 0 -3118
44 -187 199 -342 386 -386 56 -13 291 -15 1839 -15 1548 0 1783 2 1839 15 187
44 342 199 386 386 22 97 22 3021 0 3118 -44 187 -199 342 -386 386 -93 22
-3592 21 -3683 -1z m3654 -240 c39 -12 66 -29 104 -67 94 -94 87 48 84 -1657
l-3 -1495 -24 -45 c-32 -61 -67 -97 -126 -128 l-50 -27 -1775 -3 c-2017 -3
-1843 -10 -1935 82 -92 92 -85 -44 -85 1636 0 1680 -7 1544 84 1636 38 37 68
57 102 68 43 13 274 15 1810 15 1578 1 1766 -1 1814 -15z"/>
<path d="M3572 4020 c-109 -29 -187 -74 -272 -160 -87 -86 -131 -163 -160
-276 -36 -141 -18 -294 52 -427 42 -81 164 -203 245 -245 133 -70 286 -88 427
-52 113 29 190 73 276 160 87 86 131 163 160 276 36 141 18 294 -52 427 -42
81 -164 203 -245 245 -132 69 -291 88 -431 52z m294 -254 c77 -35 145 -103
181 -180 24 -52 28 -74 28 -146 0 -72 -4 -94 -28 -146 -36 -77 -104 -145 -182
-181 -51 -24 -73 -28 -145 -28 -72 0 -94 4 -145 28 -78 36 -146 104 -182 181
-24 52 -28 74 -28 146 0 72 4 94 28 145 86 183 293 263 473 181z"/>
<path d="M2050 3121 c-19 -11 -42 -27 -52 -37 -37 -42 -1081 -1490 -1101
-1528 -16 -31 -22 -59 -22 -116 0 -65 4 -82 30 -128 32 -59 66 -91 129 -125
l41 -22 1405 0 1405 0 51 27 c56 29 93 68 127 132 30 57 30 173 -1 232 -25 49
-671 944 -716 993 -40 43 -83 61 -148 61 -84 0 -120 -27 -221 -165 -48 -66
-93 -129 -100 -139 -12 -17 -37 14 -276 345 -316 436 -322 444 -371 469 -50
26 -132 26 -180 1z m370 -631 c149 -206 283 -388 298 -404 59 -63 151 -82 229
-47 44 20 76 57 183 208 36 51 68 92 71 93 10 0 649 -887 649 -902 0 -39 19
-38 -1371 -38 -1432 0 -1377 -2 -1367 44 4 21 1021 1426 1030 1423 4 -1 129
-171 278 -377z"/>
</g>
</svg>
