<?xml version="1.0" standalone="no"?>
<!DOCTYPE svg PUBLIC "-//W3C//DTD SVG 20010904//EN"
 "http://www.w3.org/TR/2001/REC-SVG-20010904/DTD/svg10.dtd">
<svg version="1.0" xmlns="http://www.w3.org/2000/svg"
 width="512.000000pt" height="512.000000pt" viewBox="0 0 512.000000 512.000000"
 preserveAspectRatio="xMidYMid meet">

<g transform="translate(0.000000,512.000000) scale(0.100000,-0.100000)"
fill="#000000" stroke="none">
<path d="M650 4925 c-337 -68 -587 -329 -639 -665 -9 -55 -11 -463 -9 -1565 3
-1625 -1 -1500 58 -1657 66 -177 261 -372 438 -438 156 -59 45 -55 1638 -55
l1460 0 41 27 c62 41 88 90 88 168 0 78 -26 127 -88 168 l-41 27 -401 3 -402
3 -228 296 c-208 269 -227 297 -216 316 12 18 1322 1688 1408 1794 l35 42 489
-542 c269 -298 508 -555 530 -572 36 -26 49 -30 109 -30 60 0 74 4 111 30 23
17 52 48 63 70 21 40 21 46 21 980 0 1021 3 963 -55 1117 -29 77 -104 191
-175 261 -99 101 -212 166 -375 215 -50 16 -208 17 -1925 19 -1515 1 -1882 -1
-1935 -12z m3842 -427 c91 -45 147 -103 191 -196 l32 -67 3 -638 3 -638 -396
438 c-217 241 -414 452 -436 468 -36 26 -49 30 -107 30 -49 0 -76 -6 -101 -20
-21 -13 -307 -368 -814 -1013 -429 -546 -784 -991 -788 -990 -4 2 -128 161
-277 353 -171 222 -282 357 -303 370 -25 14 -52 20 -99 20 -47 0 -74 -6 -99
-20 -37 -22 -481 -590 -518 -664 -86 -168 97 -344 267 -258 37 18 72 57 195
219 83 108 152 197 155 197 6 0 873 -1126 878 -1140 3 -6 -308 -8 -785 -7
l-788 3 -67 32 c-93 44 -151 100 -196 191 l-37 76 0 1495 0 1496 32 67 c17 37
50 87 72 111 44 48 135 101 197 116 23 5 789 8 1875 8 l1835 -2 76 -37z"/>
<path d="M1252 4200 c-109 -29 -187 -74 -272 -160 -87 -86 -131 -163 -160
-276 -36 -141 -18 -294 52 -427 42 -81 164 -203 245 -245 133 -70 286 -88 427
-52 113 29 190 73 276 160 87 86 131 163 160 276 36 141 18 294 -52 427 -42
81 -164 203 -245 245 -132 69 -291 88 -431 52z m258 -414 c59 -39 85 -89 85
-166 0 -78 -26 -127 -88 -168 -56 -37 -153 -39 -210 -3 -76 47 -111 140 -88
229 14 51 75 117 123 131 53 16 135 6 178 -23z"/>
<path d="M4213 2046 c-116 -29 -156 -59 -400 -293 -128 -124 -243 -241 -255
-261 -33 -53 -32 -152 1 -205 47 -76 140 -111 231 -87 37 10 68 35 192 158
l148 146 0 -584 c0 -575 0 -584 21 -628 41 -84 143 -129 232 -102 59 17 94 47
122 104 l25 50 0 575 1 576 142 -147 c122 -126 148 -148 187 -158 158 -42 293
91 250 248 -9 37 -46 80 -236 277 -232 241 -279 280 -380 316 -74 26 -209 34
-281 15z"/>
</g>
</svg>
