<?xml version="1.0" standalone="no"?>
<!DOCTYPE svg PUBLIC "-//W3C//DTD SVG 20010904//EN"
 "http://www.w3.org/TR/2001/REC-SVG-20010904/DTD/svg10.dtd">
<svg version="1.0" xmlns="http://www.w3.org/2000/svg"
 width="512.000000pt" height="512.000000pt" viewBox="0 0 512.000000 512.000000"
 preserveAspectRatio="xMidYMid meet">

<g transform="translate(0.000000,512.000000) scale(0.100000,-0.100000)"
fill="#000000" stroke="none">
<path d="M2833 4786 c-137 -34 -255 -130 -320 -263 l-38 -78 -3 -789 c-2 -699
-1 -796 14 -845 42 -149 167 -276 315 -322 57 -18 103 -19 833 -19 720 0 777
1 828 18 166 55 293 194 327 360 7 36 11 292 11 790 0 811 1 796 -61 913 -38
70 -126 157 -197 193 -112 57 -102 56 -912 55 -560 0 -758 -4 -797 -13z m1573
-332 c15 -11 37 -33 48 -48 21 -27 21 -38 24 -758 2 -718 2 -732 -18 -772 -11
-23 -33 -50 -48 -61 -26 -20 -45 -20 -772 -23 -730 -2 -746 -2 -778 18 -18 11
-41 34 -52 52 -20 32 -20 48 -18 778 3 727 3 746 23 772 11 15 38 37 60 48 39
20 53 20 772 18 721 -3 732 -3 759 -24z"/>
<path d="M693 4346 c-180 -44 -329 -198 -363 -375 -14 -75 -13 -1054 1 -1123
30 -143 129 -268 266 -335 l78 -38 572 -3 c557 -3 573 -2 634 18 156 53 273
177 315 335 11 39 14 171 14 592 0 503 -1 545 -19 602 -50 160 -187 287 -353
326 -84 20 -1063 21 -1145 1z m1124 -332 c15 -11 38 -36 51 -54 l22 -33 0
-511 c0 -478 -1 -514 -19 -546 -10 -19 -33 -45 -51 -58 l-34 -23 -525 3 c-508
3 -527 4 -553 23 -15 11 -37 39 -48 61 -20 40 -20 55 -18 550 l3 509 24 34
c13 18 42 42 65 52 39 18 70 19 548 16 496 -2 507 -2 535 -23z"/>
<path d="M658 2191 c-164 -53 -293 -194 -327 -359 -7 -35 -11 -232 -11 -570 0
-427 3 -528 15 -575 45 -173 178 -307 350 -352 88 -22 1072 -22 1160 0 169 44
296 163 345 324 19 59 20 95 20 605 0 589 0 587 -57 700 -33 66 -126 157 -194
191 -106 54 -111 55 -699 54 -499 0 -550 -2 -602 -18z m1168 -328 c65 -46 64
-37 64 -601 l0 -509 -23 -33 c-12 -18 -35 -43 -50 -54 -28 -21 -36 -21 -552
-21 -513 0 -524 0 -551 21 -15 11 -37 33 -48 48 -21 27 -21 38 -21 551 0 516
0 524 21 552 11 15 36 38 54 51 l34 23 520 -3 c521 -3 521 -3 552 -25z"/>
<path d="M2820 2196 c-133 -37 -239 -126 -303 -254 l-42 -85 0 -591 0 -591 38
-78 c67 -137 192 -236 335 -266 69 -14 1048 -15 1123 -1 182 35 339 191 378
378 7 35 11 228 11 560 0 558 -2 583 -61 693 -34 63 -115 149 -175 186 -22 13
-68 32 -103 43 -60 19 -91 20 -610 19 -405 -1 -558 -4 -591 -13z m1140 -328
c18 -13 43 -36 54 -51 21 -28 21 -39 24 -530 3 -563 3 -562 -66 -615 l-35 -27
-510 -3 c-496 -2 -511 -2 -551 18 -22 11 -50 33 -61 48 -19 26 -20 45 -23 552
-2 510 -2 526 18 558 11 18 34 41 52 52 32 19 52 20 549 20 l516 0 33 -22z"/>
</g>
</svg>
